<svg width="80" height="80" viewBox="0 0 80 80" fill="none" xmlns="http://www.w3.org/2000/svg">
<path d="M0 0L40.5 6.5L80 0L71.5 16.5L67.5 40L73 62L80 80L40.5 75L0 80L13 40L9.5 15L0 0Z" fill="white"/>
<path fill-rule="evenodd" clip-rule="evenodd" d="M33.9176 70.8751C32.5424 70.8751 31.9949 70.8522 30.7352 70.3639C30.1197 70.1253 29.3828 69.5788 28.9971 69.1111C28.2518 68.2075 27.8364 67.2063 27.6668 66.005C27.4652 64.5754 27.5998 64.3731 27.5931 63.0872C27.5914 62.7777 27.6359 62.6406 27.6342 62.3407L27.7523 59.3096C27.7744 59.049 27.7396 58.7497 27.7543 58.4856C27.8069 57.5351 27.8801 56.3297 27.8748 55.4173C27.873 55.1175 27.9174 54.9803 27.9159 54.6708C27.9144 54.3901 27.9137 54.1352 27.9448 53.9126C27.9802 53.6605 27.951 53.3913 27.9542 53.1351C27.9567 52.9451 27.9815 52.9297 27.994 52.7806L28.0533 50.8326C28.128 50.3419 28.1097 50.0096 28.2455 49.4471C28.4485 48.6069 28.6606 47.9404 29.2213 47.2139C30.2241 45.9147 31.6963 45.2703 33.9176 45.2703C34.8303 45.2703 35.6417 45.4041 36.3811 45.6969C37.3141 46.0665 38.1164 46.6872 38.6293 47.5529C39.1235 48.3867 39.4818 49.7116 39.4775 50.7365L39.5169 52.4287C39.5169 52.822 39.5171 53.2154 39.5169 53.6086C39.5168 54.0307 39.5577 54.2983 39.5572 54.7099C39.5544 56.9831 39.6377 59.2446 39.6377 61.5143C39.6377 62.5107 39.7701 64.0671 39.6721 64.9303C39.4589 66.8102 39.11 68.4689 37.4862 69.7183C36.5619 70.4294 35.1928 70.8751 33.9176 70.8751V70.8751ZM80 0V0.00123302L76.7834 7.00619C76.6998 7.2052 76.6297 7.36108 76.5477 7.56282C75.0833 11.1613 74.0007 14.0017 72.8443 17.9094C71.6208 22.0443 71.0097 25.128 70.4012 29.5653L70.0909 32.7629C70.0188 34.1313 69.9703 35.4599 69.9703 36.8928L70.0529 39.9192C70.1758 41.3699 70.2621 42.7805 70.4706 44.2312C71.1076 48.659 71.7741 51.4616 73.0002 55.7241C73.4739 57.371 74.1218 59.4713 74.6783 61.0865C74.7486 61.2906 74.7968 61.4751 74.8695 61.6864C75.0098 62.0948 75.1224 62.4662 75.2625 62.876C76.6112 66.8255 77.859 70.8082 78.9048 74.8555C79.0165 75.2883 79.9758 79.319 80 79.9761V79.9999L73.6748 79.4114C72.5001 79.334 71.0844 79.1305 69.9315 79.0546L67.4096 78.803C66.5815 78.6907 65.7168 78.6562 64.9232 78.5564C63.3537 78.3589 61.4854 78.2633 59.9229 78.0501L58.6496 77.9168C58.2296 77.8893 57.8301 77.8338 57.4059 77.7938C56.6064 77.7184 55.7127 77.6304 54.9332 77.5336C54.0772 77.4276 53.2731 77.382 52.4191 77.2745L47.4407 76.747C46.5977 76.6426 45.8076 76.5937 44.967 76.4879C44.1673 76.3873 43.2911 76.298 42.4612 76.2205C42.075 76.1845 41.6378 76.1445 41.226 76.0893C41.0044 76.0597 40.8267 76.0443 40.6082 76.0239C39.5394 75.924 40.404 75.9381 39.3546 76.0264L36.2659 76.3537C35.0519 76.5043 33.6886 76.5967 32.5251 76.7523L23.8 77.6728C23.3674 77.7169 22.9689 77.7614 22.5569 77.7964L18.805 78.1842C18.373 78.2287 17.9734 78.2727 17.5619 78.3077C17.1456 78.3429 16.7403 78.3905 16.318 78.4304L12.5561 78.8084C12.1454 78.8601 11.7036 78.903 11.3158 78.9346C9.64398 79.0713 7.96026 79.2767 6.28757 79.4135L0 80L0.23836 78.6595C0.750861 76.1633 1.65662 72.3954 2.46227 69.9361C2.82798 68.8194 3.20362 67.4783 3.59002 66.3569L5.14095 61.6567C5.27543 61.2632 5.40335 60.881 5.52371 60.4966C6.24479 58.1965 7.0903 55.6124 7.69394 53.2547C7.90476 52.431 8.13025 51.6161 8.32136 50.7602C8.70161 49.0575 9.08284 47.3264 9.33853 45.5388C9.46924 44.6239 9.59366 43.7158 9.70075 42.7854C9.90751 40.9904 10.0302 38.7252 10.0302 36.8534L9.94945 33.8251C9.94246 33.6979 9.9549 33.5585 9.95098 33.4303L9.8692 32.3304C9.8678 31.8616 9.65587 30.0459 9.59059 29.4952C8.67505 21.7655 6.32672 14.5313 3.4301 7.50632C3.35153 7.31577 3.28009 7.14624 3.19355 6.95063L2.24223 4.77225C2.15499 4.59003 2.08607 4.43797 2.00848 4.25329L0 0L9.81147 1.31489C11.4753 1.5397 13.0886 1.68821 14.7603 1.91057C15.6008 2.0225 16.4499 2.09143 17.2527 2.19094C18.1033 2.29645 18.9067 2.34736 19.7556 2.46107C20.618 2.57641 21.4374 2.6179 22.3045 2.72533C23.0965 2.82361 24.0021 2.90864 24.8176 2.98549C25.7413 3.07258 27.1441 3.24621 27.9975 3.30244L29.8722 3.47784C30.9246 3.62144 32.5634 3.70415 33.6875 3.84325C35.1561 4.02506 37.224 4.16484 38.758 4.32017C39.8113 4.42678 40.2067 4.44889 41.2781 4.31553C41.6718 4.26653 42.1302 4.25042 42.5612 4.19173C43.2694 4.09509 44.4508 4.04554 45.0991 3.95586C45.9454 3.83888 46.7834 3.82946 47.6308 3.71385C48.5261 3.59168 49.8916 3.51197 50.8294 3.41519C50.9921 3.3984 51.2751 3.35881 51.4435 3.34612L55.2198 2.98208C56.787 2.80996 58.7665 2.65885 60.245 2.46107C61.8068 2.25195 63.6866 2.12091 65.2749 1.90511C66.1082 1.79195 66.9382 1.70118 67.7548 1.61259C70.8864 1.27271 74.4536 0.784594 77.5663 0.33688L80 0V0ZM41.6518 50.8554C41.6518 49.3945 41.8606 48.0514 42.7923 46.9345C42.9045 46.8001 42.9825 46.6931 43.1114 46.5776C43.1919 46.5056 43.2111 46.5037 43.2909 46.4382C44.3995 45.528 45.567 45.2703 47.1302 45.2703C48.1812 45.2703 49.2052 45.4695 49.9237 45.8075C51.5462 46.5703 52.4002 47.8066 52.8344 49.4944C52.9571 49.9713 53.1288 51.1799 53.133 51.6807L53.2959 53.9602C53.3349 54.4572 53.3891 54.9732 53.4146 55.4962C53.4383 55.9826 53.5303 56.5306 53.5345 57.0312C53.5386 57.5167 53.6545 58.0399 53.656 58.5644L54.058 63.9142C54.0643 64.173 54.099 64.2121 54.099 64.7C54.099 66.0649 53.9606 67.3784 53.2707 68.4931C53.1049 68.7611 52.9044 69.0713 52.6799 69.2928C52.5586 69.4125 52.462 69.5097 52.3375 69.6271C52.221 69.7371 52.0866 69.8228 51.9531 69.9204C51.1543 70.5039 49.8062 70.8751 48.7012 70.8751C47.3491 70.8751 46.4747 70.8067 45.2903 70.2723C43.3259 69.3859 42.2905 67.3222 42.0547 65.2508C42.0295 65.0298 41.9856 64.7216 41.9739 64.5036C41.9672 64.377 41.9826 64.2385 41.9719 64.1122C41.91 63.3752 41.964 63.0791 41.934 62.5367C41.9244 62.3617 41.8945 62.3479 41.892 62.1451L41.8949 60.923C41.8889 60.7289 41.8579 60.7264 41.852 60.5322C41.8437 60.2633 41.8532 59.9761 41.8532 59.705C41.8534 59.2241 41.8201 59.1959 41.8117 58.9196L41.7724 57.3059C41.7132 56.234 41.8142 55.1246 41.6981 54.1142C41.64 53.61 41.7297 52.9723 41.6628 52.4966C41.6052 52.0857 41.6518 51.3066 41.6518 50.8554V50.8554ZM17.0797 55.6146H21.4704L21.6697 52.7806C21.6791 52.6666 21.6647 52.5449 21.6741 52.4308L21.8036 50.5121C21.8692 50.0424 21.897 48.4846 21.9771 47.9677C22.0391 47.5676 21.9957 47.1099 22.0577 46.709C22.132 46.2284 22.0261 45.5063 22.2358 45.5063H25.8611C25.8611 46.2529 25.6944 47.8825 25.6995 48.613L25.6611 49.7554C25.6552 49.9496 25.6241 49.9521 25.6182 50.1462C25.6018 50.6844 25.6017 51.2324 25.5448 51.7264C25.4889 52.2126 25.5551 52.8039 25.4816 53.2773L25.3389 56.4418C25.3301 56.7311 25.2992 56.7193 25.2986 57.2284C25.2975 58.1952 25.0952 60.1451 25.0945 61.1196C25.0944 61.2464 25.1029 61.3897 25.096 61.5144L25.0151 62.6939C24.985 63.2375 24.9976 63.777 24.9406 64.2732C24.8842 64.7631 24.9511 65.3479 24.8834 65.83C24.8148 66.3195 24.8441 66.8694 24.8141 67.4142C24.8046 67.5869 24.778 67.5787 24.7723 67.7666C24.7679 67.909 24.7792 68.0595 24.7749 68.2019C24.7692 68.3899 24.7426 68.3815 24.7331 68.5543L24.6527 70.5605H20.5037C20.5037 70.0049 20.5762 69.3815 20.6224 68.8278C20.6484 68.5161 20.6145 68.1874 20.6881 67.712L20.8649 64.8561C20.8662 64.6823 20.8867 64.6583 20.9005 64.5371L21.1481 60.6096C21.1444 60.1544 21.2288 59.7203 21.2288 59.1544H16.7573C16.7573 59.6231 16.6736 60.1306 16.6392 60.5729L16.2767 64.86C16.1278 66.7743 15.9515 68.6719 15.7906 70.5605H11.7221L11.8819 69.0251C11.9817 67.5795 12.2374 65.7716 12.3632 64.3034L12.6859 61.1572C12.77 60.094 12.893 59.0354 13.0043 58.0071C13.1194 56.9449 13.215 55.8917 13.3266 54.8606C13.4413 53.8009 13.5125 52.7241 13.6442 51.7095C13.7722 50.723 13.8427 49.5165 13.9664 48.5629C14.0359 48.0283 14.063 47.4864 14.1279 46.9901L14.2407 45.8023C14.2621 45.6363 14.2224 45.5063 14.3808 45.5063H17.9256C17.9256 45.6723 17.8999 45.9375 17.8792 46.1297L17.6034 49.2823C17.5911 49.665 17.5408 50.2019 17.4937 50.5516C17.4699 50.7277 17.4471 51.0181 17.4422 51.1702L17.1713 54.3274C17.1484 54.4983 17.1233 54.8001 17.1196 54.9455C17.1127 55.2051 17.0797 55.3494 17.0797 55.6146V55.6146ZM63.364 55.9685C63.364 56.1087 64.3362 57.9043 64.5057 58.2362L64.9757 59.154C65.0579 59.3141 65.1136 59.4704 65.2026 59.6403C65.4975 60.203 66.1626 61.4209 66.3614 61.8915L68.4803 65.9975C69.2498 67.4288 70.0311 69.1117 70.8162 70.5605H66.5866C66.5729 70.4004 66.086 69.4573 65.9749 69.2304C65.9201 69.1186 65.8753 69.0597 65.8154 68.9142L64.0483 65.2512C63.8554 64.8275 63.5977 64.376 63.4048 63.9523L61.4707 59.941C61.3511 60.0266 61.2839 60.2789 61.2175 60.441L60.5251 62.1254C60.3961 62.4304 60.7097 64.521 60.7422 64.9001C60.8167 65.7699 61.3095 69.929 61.3095 70.5605H57.2411C57.2411 70.1153 56.9776 67.4443 56.9158 66.6696L56.7689 65.1218C56.7313 64.8415 56.7418 64.5948 56.7113 64.3128L56.4353 61.1997C56.428 60.972 56.3744 60.6669 56.3576 60.4498C56.2948 59.6411 56.1845 58.0415 56.084 57.2949L55.4686 50.2262C55.4536 49.6387 55.2823 48.4907 55.2673 47.9056C55.2532 47.3573 55.0659 46.0574 55.0659 45.5063H58.6107C58.7634 45.5063 58.7481 45.7339 58.7704 46.0583C58.7851 46.2715 58.8041 46.485 58.8352 46.703C58.8682 46.934 58.8768 47.1234 58.8962 47.3515C58.9124 47.5433 58.9581 47.7865 58.9718 47.9856C59.002 48.4254 59.0596 48.832 59.0975 49.2787C59.1138 49.4707 59.1596 49.7138 59.1733 49.9129L59.7789 55.7325C59.9196 55.6319 59.9767 55.2858 60.0353 55.1176L61.2059 51.9342C61.3805 51.4904 61.5062 51.0692 61.6839 50.631C61.7725 50.4122 61.8294 50.1977 61.9137 49.9902C62.2318 49.2075 63.3983 45.8148 63.5655 45.5063H67.1908C67.1777 45.6599 67.1388 45.7093 67.0871 45.8378C67.0369 45.9624 67.022 46.0332 66.9723 46.1584L66.2492 48.1268C65.9482 49.0175 65.5932 49.8482 65.2925 50.7326L63.364 55.9685V55.9685ZM67.1103 16.2045V17.2272C67.1103 18.2652 66.2424 24.5188 66.1154 25.4593C65.6564 28.8518 65.268 32.3268 64.7913 35.6905C64.5545 37.3607 64.4191 38.727 63.6191 40.2884C62.8216 41.8452 61.6601 42.9735 59.9925 43.6698C57.9419 44.526 54.3906 44.5294 52.3664 43.2257C52.018 43.0013 51.7858 42.793 51.4906 42.5075C50.9138 41.9492 50.5794 41.3142 50.2841 40.5785C49.7692 39.2965 49.7702 37.9704 49.7872 36.6159L49.8635 35.5104C49.8849 35.324 49.8557 35.1153 49.8715 34.9283C49.9329 34.2051 49.9657 33.4475 49.9889 32.683L50.0688 31.5811C50.0846 31.3939 50.0553 31.1854 50.0767 30.9989L50.4325 24.2272C50.4308 23.9751 50.4725 23.9066 50.4753 23.679C50.4844 22.9272 50.5318 22.149 50.5924 21.4335L50.8328 17.4991C50.9287 16.6834 51.1286 15.7789 51.3548 15.0589C51.506 14.5773 51.6394 14.222 51.8572 13.7796C51.9303 13.6311 51.9744 13.5087 52.0445 13.3725C52.7279 12.0435 53.6462 11.0464 54.9043 10.2256C55.1478 10.0667 55.4388 9.92643 55.7103 9.79348C58.2131 8.56759 62.445 8.63488 64.6815 10.4736L65.3684 11.1403C65.4495 11.2244 65.512 11.3183 65.5795 11.4061C66.3174 12.3648 66.7352 13.4004 66.9377 14.6031C67.02 15.0925 67.1103 15.5825 67.1103 16.2045V16.2045ZM31.1785 9.47885H40.0809C41.2521 9.47885 42.622 9.74161 43.6782 10.1749C43.7994 10.2245 43.883 10.273 44.0017 10.331C44.2585 10.4565 44.3862 10.5247 44.6166 10.6746C46.0282 11.5932 46.8745 13.0254 47.2481 14.6734L47.4709 15.8719C47.5545 16.4166 47.5734 17.3117 47.5734 17.8957C47.5734 18.5178 47.5323 19.0433 47.5331 19.6264C47.5335 19.9595 47.4906 20.1572 47.4919 20.4514C47.4933 20.7802 47.4898 21.0502 47.4585 21.3234C47.4421 21.4645 47.4556 21.6096 47.4541 21.7518C47.4517 21.9548 47.4211 21.9689 47.4126 22.1438C47.3958 22.4867 47.3637 22.6569 47.3283 22.9662C47.1275 24.7201 46.4849 26.407 45.2477 27.621C45 27.8641 44.1758 28.4741 43.8673 28.5546V28.6332C44.0657 28.6494 44.4876 28.9073 44.6495 29.0103C44.7791 29.0927 44.8586 29.147 44.9787 29.2394C46.1627 30.1503 46.5071 31.2173 46.805 32.6479C47.1193 34.1571 46.9643 34.9623 46.97 36.3431C46.9712 36.6319 46.9281 36.8061 46.9288 37.1288C46.9296 37.4413 46.9023 37.6637 46.8883 37.9153C46.8742 38.1697 46.9028 38.4477 46.8888 38.7022C46.8748 38.9539 46.8475 39.1761 46.8484 39.4887C46.8491 39.8115 46.8059 39.9855 46.807 40.2744C46.8116 41.3628 46.7332 42.4183 47.0319 43.4391C47.0803 43.6042 47.1577 43.7837 47.1705 43.9331H42.4172C42.2662 43.3005 42.1014 43.1758 42.0546 42.2813C42.0245 41.708 41.9675 40.8863 42.0436 40.3432C42.0968 39.9653 42.0551 37.9764 42.0547 37.3255C42.0544 36.9401 42.0965 36.7089 42.0951 36.3423C42.0899 34.9797 42.1099 33.6575 41.6391 32.7363C41.3816 32.2324 41.1324 31.9755 40.6532 31.6929C39.7891 31.183 38.1602 31.3078 37.0597 31.3078C37.0597 33.4223 37.1513 35.4981 37.1399 37.6404C37.1384 37.9498 37.1829 38.087 37.181 38.3869C37.178 38.9027 37.149 40.457 37.1975 40.77C37.2607 41.1778 37.2223 42.5636 37.2199 43.1474C37.2186 43.4353 37.2611 43.6112 37.2611 43.9331H32.5481C32.5481 43.75 32.552 43.5634 32.5497 43.3809C32.5469 43.1578 32.5067 43.1089 32.5065 42.8725C32.5049 41.8248 32.3833 40.6881 32.3869 39.6459C32.3892 39.0359 32.3046 38.1268 32.3073 37.4819C32.3084 37.2408 32.271 37.1778 32.2648 36.9727C32.2592 36.7915 32.2701 36.6015 32.2677 36.4192C32.2649 36.1961 32.2248 36.1472 32.2245 35.9109C32.2242 35.7211 32.2364 35.5061 32.226 35.3193C32.2155 35.1308 32.1835 35.0484 32.1849 34.8088C32.1914 33.7387 32.0591 32.6408 32.065 31.5828L32.0258 30.4805C32.0254 30.2441 31.9853 30.1952 31.9825 29.972C31.9801 29.7887 31.9881 29.6017 31.9857 29.4182C31.9828 29.1911 31.9418 29.1219 31.9429 28.8701C31.946 28.1327 31.8614 27.4278 31.8632 26.706C31.8655 25.7935 31.7394 24.459 31.7433 23.5192C31.7444 23.2783 31.7071 23.2151 31.7008 23.0101C31.6949 22.8158 31.7093 22.6119 31.7035 22.4175C31.6972 22.2126 31.6598 22.1494 31.661 21.9085L31.5066 18.126C31.4883 17.9673 31.5003 17.7457 31.5013 17.5806L31.4188 15.9699C31.4169 14.6337 31.2522 12.9157 31.2593 11.6418C31.2613 11.2711 31.2168 10.9888 31.2193 10.5796C31.2207 10.34 31.1887 10.2576 31.1782 10.0691C31.168 9.88439 31.1785 9.66708 31.1785 9.47885V9.47885ZM11.7221 9.47885H20.4231C21.951 9.47885 23.8008 9.99249 25.0481 10.8234C25.1883 10.9169 25.3348 11.0216 25.4644 11.1249C25.6064 11.2382 25.7412 11.346 25.8715 11.4747C26.1357 11.7359 26.3732 11.9551 26.6042 12.254C27.4962 13.409 27.6801 13.9656 28.1229 15.1762C28.1825 15.3391 28.2468 15.5107 28.2945 15.7167C28.4262 16.2868 28.6573 17.2908 28.7158 17.8618C28.7297 17.9977 28.7249 18.0945 28.7441 18.2274L28.9225 21.3571C28.932 21.53 28.9587 21.5215 28.9643 21.7096C28.9933 22.6776 29.0838 23.5593 29.0838 24.5428C29.0838 25.0981 29.0971 25.4426 29.0543 25.9688C29.0414 26.1271 29.0219 26.2475 29.01 26.3586C28.9271 27.1349 28.8036 27.8676 28.5085 28.5829C28.0619 29.6656 27.5589 30.4641 26.5926 31.1565C25.6404 31.839 24.3415 32.1946 23.1256 32.2944C22.4716 32.3482 20.7954 32.3381 19.9773 32.3282C19.7036 32.325 19.6782 32.2866 19.6823 32.4556C19.6888 32.7178 19.7448 33.0509 19.7714 33.2814C19.927 34.6326 20.0222 36.0597 20.1927 37.393C20.2566 37.8918 20.2891 38.4587 20.3657 38.9941L20.7051 42.2812C20.7385 42.8142 20.8662 43.3857 20.8662 43.9331H16.1934L14.519 31.0547C14.1174 28.221 13.7858 25.2698 13.4019 22.4308C13.21 21.0117 13.0229 19.5565 12.8428 18.0994C12.5825 15.9939 12.2487 13.763 12.0007 11.6454C11.9596 11.2937 11.9133 10.9364 11.8603 10.5631L11.7221 9.47885V9.47885Z" fill="#222222"/>
<path fill-rule="evenodd" clip-rule="evenodd" d="M54.623 37.6795C54.623 38.2746 54.7764 38.8901 55.0363 39.2427C55.3254 39.6348 55.728 39.8708 56.273 40.0017C57.2661 40.2402 58.5599 39.8952 59.1426 38.9852C59.7592 38.0221 59.6959 37.114 59.8714 35.7634C60.0852 34.1158 60.2457 32.0779 60.4305 30.3705C60.4914 29.8093 60.5842 29.1658 60.6238 28.5926C60.6997 27.4925 60.8919 26.1482 60.9911 24.9789C61.0394 24.4122 61.1365 23.7749 61.1856 23.2022C61.2131 22.8814 61.2424 22.6191 61.2734 22.3046C61.3004 22.0314 61.3247 21.7118 61.3673 21.4131L61.553 19.6278C61.6279 18.5423 61.9134 17.1986 61.5169 16.1205C61.3974 15.7958 61.2681 15.5916 61.0383 15.3686C59.8057 14.173 57.6621 14.6358 56.8614 15.7942C55.9388 17.1288 56.0849 19.2174 55.9061 20.8398C55.8839 21.0418 55.8359 21.4184 55.8308 21.6315C55.8157 22.2526 55.7171 22.7758 55.7105 23.2446C55.703 23.7715 55.5974 24.3349 55.59 24.8576L55.3995 27.2282C55.365 27.4805 55.3552 27.7922 55.349 28.0441L54.623 37.6795V37.6795Z" fill="#222222"/>
<path fill-rule="evenodd" clip-rule="evenodd" d="M31.541 64.6608C31.541 67.5105 34.3609 67.3007 35.1728 66.319C35.5016 65.9215 35.6941 65.2951 35.6904 64.5825C35.6823 63.0668 35.7304 61.6652 35.7304 60.1377V50.5802C35.7304 48.2616 33.5768 48.2604 32.7504 48.7326C31.8634 49.2394 31.7774 50.2526 31.7824 51.2092C31.7844 51.5895 31.7819 51.9699 31.7827 52.3502C31.7837 52.7524 31.7423 53.0283 31.7425 53.4514C31.7426 55.6548 31.6215 57.9826 31.6215 60.1771C31.6215 60.9298 31.5803 61.628 31.5813 62.419C31.5818 62.8305 31.5409 63.0982 31.541 63.5202C31.5412 63.9004 31.541 64.2807 31.541 64.6608V64.6608Z" fill="#222222"/>
<path fill-rule="evenodd" clip-rule="evenodd" d="M48.1777 66.9811C49.4865 66.9811 50.1113 66.0654 50.1113 64.9358L50.0721 63.5188C50.0731 63.2745 50.0286 63.2146 50.0296 62.9704L49.9442 61.2838C49.8709 60.6457 49.8518 59.7948 49.7911 59.0734C49.7584 58.6835 49.7797 58.3277 49.7467 57.9369C49.6875 57.2381 49.6721 56.4118 49.5934 55.7266L49.3474 51.2864C49.3454 51.0708 49.3122 50.9808 49.306 50.7369C49.3022 50.5918 49.2705 50.3612 49.2431 50.2084C49.1781 49.8458 49.0832 49.6079 48.9305 49.3335C48.3881 48.3589 46.6423 48.2253 45.9053 48.9511C45.8706 48.9852 45.8418 49.0189 45.809 49.0537C45.0546 49.8556 45.4855 51.9423 45.479 53.0968C45.4775 53.3697 45.4884 53.5554 45.5131 53.7715C45.5379 53.9864 45.5109 54.2534 45.5178 54.475C45.5249 54.7097 45.5607 54.8885 45.5593 55.1818L45.6106 56.5475C45.6605 56.903 45.6588 58.124 45.7146 58.6093L45.7607 59.9801C45.7588 60.5293 45.8434 61.3792 45.8404 62.0656L45.9778 64.8026C46.0742 65.4358 46.1942 65.9178 46.5963 66.362C46.9384 66.7401 47.5932 66.9811 48.1777 66.9811V66.9811Z" fill="#222222"/>
<path fill-rule="evenodd" clip-rule="evenodd" d="M19.1747 27.5713H21.6722C23.5899 27.5713 23.9794 26.2534 23.9294 24.6202L23.7156 21.9184C23.6923 21.7487 23.6506 21.3501 23.6457 21.1606L23.3811 18.1151C23.3394 17.822 23.3012 17.648 23.254 17.4132C22.9824 16.0654 22.0828 15.1426 20.4638 15.1426H17.8857C17.8857 15.5932 18.3163 19.0374 18.3676 19.785C18.4038 20.3129 18.4933 20.8444 18.5288 21.3583C18.564 21.8706 18.6552 22.3886 18.6899 22.8923C18.7416 23.6412 19.1747 27.145 19.1747 27.5713Z" fill="#222222"/>
<path fill-rule="evenodd" clip-rule="evenodd" d="M36.9795 26.47H39.1951C40.2883 26.47 41.2762 25.9829 41.72 25.1202C42.2172 24.1531 42.1772 22.8524 42.1758 21.7109C42.1753 21.263 42.2163 20.9259 42.2163 20.4524C42.2163 19.1326 42.3468 17.2052 41.6206 16.1568C41.1413 15.465 40.4474 15.1426 39.5173 15.1426H36.8184C36.8184 17.9158 36.9391 20.8381 36.9391 23.6381C36.9391 24.1506 36.9797 24.5212 36.9795 25.0147C36.9794 25.4998 36.9795 25.9849 36.9795 26.47V26.47Z" fill="#222222"/>
</svg>
