<svg width="1920" height="121" viewBox="0 0 1920 121" fill="none" xmlns="http://www.w3.org/2000/svg">
<rect width="1920" height="120" transform="matrix(1 0 0 -1 0 120)" fill="#FFED00"/>
<path d="M0 120H1920" stroke="black"/>
<path d="M1205 120L1205 -3.94508e-06" stroke="black"/>
<path d="M715 120L715 -7.62939e-06" stroke="black"/>
<path d="M284.25 66L280.25 60.6591H278.818V66H277.409V54.3636H278.818V59.4091H279.432L284.091 54.3636H285.773L281.068 59.4773L285.932 66H284.25ZM290.139 66.2045C289.586 66.2045 289.084 66.1004 288.634 65.892C288.183 65.6799 287.825 65.375 287.56 64.9773C287.295 64.5758 287.162 64.0909 287.162 63.5227C287.162 63.0227 287.26 62.6174 287.457 62.3068C287.654 61.9924 287.918 61.7462 288.247 61.5682C288.577 61.3902 288.94 61.2576 289.338 61.1705C289.74 61.0795 290.143 61.0076 290.548 60.9545C291.079 60.8864 291.509 60.8352 291.838 60.8011C292.171 60.7633 292.414 60.7008 292.565 60.6136C292.721 60.5265 292.798 60.375 292.798 60.1591V60.1136C292.798 59.553 292.645 59.1174 292.338 58.8068C292.035 58.4962 291.575 58.3409 290.957 58.3409C290.317 58.3409 289.815 58.4811 289.452 58.7614C289.088 59.0417 288.832 59.3409 288.685 59.6591L287.412 59.2045C287.639 58.6742 287.942 58.2614 288.321 57.9659C288.704 57.6667 289.12 57.4583 289.571 57.3409C290.026 57.2197 290.473 57.1591 290.912 57.1591C291.192 57.1591 291.514 57.1932 291.878 57.2614C292.245 57.3258 292.599 57.4602 292.94 57.6648C293.285 57.8693 293.571 58.178 293.798 58.5909C294.026 59.0038 294.139 59.5568 294.139 60.25V66H292.798V64.8182H292.73C292.639 65.0076 292.488 65.2102 292.276 65.4261C292.063 65.642 291.781 65.8258 291.429 65.9773C291.077 66.1288 290.647 66.2045 290.139 66.2045ZM290.344 65C290.874 65 291.321 64.8958 291.685 64.6875C292.052 64.4792 292.329 64.2102 292.514 63.8807C292.704 63.5511 292.798 63.2045 292.798 62.8409V61.6136C292.741 61.6818 292.616 61.7443 292.423 61.8011C292.234 61.8542 292.014 61.9015 291.764 61.9432C291.518 61.9811 291.277 62.0152 291.043 62.0455C290.812 62.072 290.624 62.0947 290.48 62.1136C290.132 62.1591 289.806 62.233 289.503 62.3352C289.204 62.4337 288.961 62.5833 288.776 62.7841C288.594 62.9811 288.503 63.25 288.503 63.5909C288.503 64.0568 288.675 64.4091 289.02 64.6477C289.368 64.8826 289.81 65 290.344 65ZM295.399 58.5227V57.2727H302.49V58.5227H299.626V66H298.286V58.5227H295.399ZM306.561 66.2045C306.008 66.2045 305.506 66.1004 305.055 65.892C304.605 65.6799 304.247 65.375 303.982 64.9773C303.716 64.5758 303.584 64.0909 303.584 63.5227C303.584 63.0227 303.682 62.6174 303.879 62.3068C304.076 61.9924 304.339 61.7462 304.669 61.5682C304.999 61.3902 305.362 61.2576 305.76 61.1705C306.161 61.0795 306.565 61.0076 306.97 60.9545C307.5 60.8864 307.93 60.8352 308.26 60.8011C308.593 60.7633 308.836 60.7008 308.987 60.6136C309.143 60.5265 309.22 60.375 309.22 60.1591V60.1136C309.22 59.553 309.067 59.1174 308.76 58.8068C308.457 58.4962 307.997 58.3409 307.379 58.3409C306.739 58.3409 306.237 58.4811 305.874 58.7614C305.51 59.0417 305.254 59.3409 305.107 59.6591L303.834 59.2045C304.061 58.6742 304.364 58.2614 304.743 57.9659C305.125 57.6667 305.542 57.4583 305.993 57.3409C306.447 57.2197 306.894 57.1591 307.334 57.1591C307.614 57.1591 307.936 57.1932 308.3 57.2614C308.667 57.3258 309.021 57.4602 309.362 57.6648C309.707 57.8693 309.993 58.178 310.22 58.5909C310.447 59.0038 310.561 59.5568 310.561 60.25V66H309.22V64.8182H309.152C309.061 65.0076 308.91 65.2102 308.697 65.4261C308.485 65.642 308.203 65.8258 307.851 65.9773C307.499 66.1288 307.069 66.2045 306.561 66.2045ZM306.766 65C307.296 65 307.743 64.8958 308.107 64.6875C308.474 64.4792 308.75 64.2102 308.936 63.8807C309.125 63.5511 309.22 63.2045 309.22 62.8409V61.6136C309.163 61.6818 309.038 61.7443 308.845 61.8011C308.656 61.8542 308.436 61.9015 308.186 61.9432C307.94 61.9811 307.699 62.0152 307.464 62.0455C307.233 62.072 307.046 62.0947 306.902 62.1136C306.554 62.1591 306.228 62.233 305.925 62.3352C305.625 62.4337 305.383 62.5833 305.197 62.7841C305.016 62.9811 304.925 63.25 304.925 63.5909C304.925 64.0568 305.097 64.4091 305.442 64.6477C305.79 64.8826 306.232 65 306.766 65ZM312.236 66V64.75H312.554C312.815 64.75 313.033 64.6989 313.207 64.5966C313.382 64.4905 313.522 64.3068 313.628 64.0455C313.738 63.7803 313.821 63.4129 313.878 62.9432C313.938 62.4697 313.982 61.8674 314.009 61.1364L314.168 57.2727H319.986V66H318.645V58.5227H315.44L315.304 61.6364C315.274 62.3523 315.209 62.983 315.111 63.5284C315.016 64.0701 314.87 64.5246 314.673 64.892C314.48 65.2595 314.223 65.536 313.901 65.7216C313.579 65.9072 313.175 66 312.69 66H312.236ZM325.991 66.1818C325.204 66.1818 324.512 65.9943 323.918 65.6193C323.327 65.2443 322.865 64.7197 322.531 64.0455C322.202 63.3712 322.037 62.5833 322.037 61.6818C322.037 60.7727 322.202 59.9792 322.531 59.3011C322.865 58.6231 323.327 58.0966 323.918 57.7216C324.512 57.3466 325.204 57.1591 325.991 57.1591C326.779 57.1591 327.469 57.3466 328.06 57.7216C328.654 58.0966 329.116 58.6231 329.446 59.3011C329.779 59.9792 329.946 60.7727 329.946 61.6818C329.946 62.5833 329.779 63.3712 329.446 64.0455C329.116 64.7197 328.654 65.2443 328.06 65.6193C327.469 65.9943 326.779 66.1818 325.991 66.1818ZM325.991 64.9773C326.59 64.9773 327.082 64.8239 327.469 64.517C327.855 64.2102 328.141 63.8068 328.327 63.3068C328.512 62.8068 328.605 62.2652 328.605 61.6818C328.605 61.0985 328.512 60.5549 328.327 60.0511C328.141 59.5473 327.855 59.1402 327.469 58.8295C327.082 58.5189 326.59 58.3636 325.991 58.3636C325.393 58.3636 324.901 58.5189 324.514 58.8295C324.128 59.1402 323.842 59.5473 323.656 60.0511C323.471 60.5549 323.378 61.0985 323.378 61.6818C323.378 62.2652 323.471 62.8068 323.656 63.3068C323.842 63.8068 324.128 64.2102 324.514 64.517C324.901 64.8239 325.393 64.9773 325.991 64.9773ZM337.379 57.2727V58.5227H333.334V66H331.993V57.2727H337.379Z" fill="#333333"/>
<path d="M380.227 60.1818C380.227 61.4091 380.006 62.4697 379.562 63.3636C379.119 64.2576 378.511 64.947 377.739 65.4318C376.966 65.9167 376.083 66.1591 375.091 66.1591C374.098 66.1591 373.216 65.9167 372.443 65.4318C371.67 64.947 371.063 64.2576 370.619 63.3636C370.176 62.4697 369.955 61.4091 369.955 60.1818C369.955 58.9545 370.176 57.8939 370.619 57C371.063 56.1061 371.67 55.4167 372.443 54.9318C373.216 54.447 374.098 54.2045 375.091 54.2045C376.083 54.2045 376.966 54.447 377.739 54.9318C378.511 55.4167 379.119 56.1061 379.562 57C380.006 57.8939 380.227 58.9545 380.227 60.1818ZM378.864 60.1818C378.864 59.1742 378.695 58.3239 378.358 57.6307C378.025 56.9375 377.572 56.4129 377 56.0568C376.432 55.7008 375.795 55.5227 375.091 55.5227C374.386 55.5227 373.748 55.7008 373.176 56.0568C372.608 56.4129 372.155 56.9375 371.818 57.6307C371.485 58.3239 371.318 59.1742 371.318 60.1818C371.318 61.1894 371.485 62.0398 371.818 62.733C372.155 63.4261 372.608 63.9508 373.176 64.3068C373.748 64.6629 374.386 64.8409 375.091 64.8409C375.795 64.8409 376.432 64.6629 377 64.3068C377.572 63.9508 378.025 63.4261 378.358 62.733C378.695 62.0398 378.864 61.1894 378.864 60.1818ZM392.756 61.0227V62.2727H387.938V61.0227H392.756ZM388.256 57.2727V66H386.915V57.2727H388.256ZM393.778 57.2727V66H392.438V57.2727H393.778ZM398.795 66.2045C398.242 66.2045 397.741 66.1004 397.29 65.892C396.839 65.6799 396.481 65.375 396.216 64.9773C395.951 64.5758 395.818 64.0909 395.818 63.5227C395.818 63.0227 395.917 62.6174 396.114 62.3068C396.311 61.9924 396.574 61.7462 396.903 61.5682C397.233 61.3902 397.597 61.2576 397.994 61.1705C398.396 61.0795 398.799 61.0076 399.205 60.9545C399.735 60.8864 400.165 60.8352 400.494 60.8011C400.828 60.7633 401.07 60.7008 401.222 60.6136C401.377 60.5265 401.455 60.375 401.455 60.1591V60.1136C401.455 59.553 401.301 59.1174 400.994 58.8068C400.691 58.4962 400.231 58.3409 399.614 58.3409C398.973 58.3409 398.472 58.4811 398.108 58.7614C397.744 59.0417 397.489 59.3409 397.341 59.6591L396.068 59.2045C396.295 58.6742 396.598 58.2614 396.977 57.9659C397.36 57.6667 397.777 57.4583 398.227 57.3409C398.682 57.2197 399.129 57.1591 399.568 57.1591C399.848 57.1591 400.17 57.1932 400.534 57.2614C400.902 57.3258 401.256 57.4602 401.597 57.6648C401.941 57.8693 402.227 58.178 402.455 58.5909C402.682 59.0038 402.795 59.5568 402.795 60.25V66H401.455V64.8182H401.386C401.295 65.0076 401.144 65.2102 400.932 65.4261C400.72 65.642 400.438 65.8258 400.085 65.9773C399.733 66.1288 399.303 66.2045 398.795 66.2045ZM399 65C399.53 65 399.977 64.8958 400.341 64.6875C400.708 64.4792 400.985 64.2102 401.17 63.8807C401.36 63.5511 401.455 63.2045 401.455 62.8409V61.6136C401.398 61.6818 401.273 61.7443 401.08 61.8011C400.89 61.8542 400.67 61.9015 400.42 61.9432C400.174 61.9811 399.934 62.0152 399.699 62.0455C399.468 62.072 399.28 62.0947 399.136 62.1136C398.788 62.1591 398.462 62.233 398.159 62.3352C397.86 62.4337 397.617 62.5833 397.432 62.7841C397.25 62.9811 397.159 63.25 397.159 63.5909C397.159 64.0568 397.331 64.4091 397.676 64.6477C398.025 64.8826 398.466 65 399 65ZM408.788 66.1818C407.97 66.1818 407.266 65.9886 406.675 65.6023C406.084 65.2159 405.629 64.6837 405.311 64.0057C404.993 63.3277 404.834 62.553 404.834 61.6818C404.834 60.7955 404.997 60.0133 405.322 59.3352C405.652 58.6534 406.11 58.1212 406.697 57.7386C407.288 57.3523 407.978 57.1591 408.766 57.1591C409.379 57.1591 409.932 57.2727 410.425 57.5C410.917 57.7273 411.321 58.0455 411.635 58.4545C411.949 58.8636 412.144 59.3409 412.22 59.8864H410.879C410.777 59.4886 410.55 59.1364 410.197 58.8295C409.849 58.5189 409.379 58.3636 408.788 58.3636C408.266 58.3636 407.807 58.5 407.413 58.7727C407.023 59.0417 406.718 59.4223 406.499 59.9148C406.283 60.4034 406.175 60.9773 406.175 61.6364C406.175 62.3106 406.281 62.8977 406.493 63.3977C406.709 63.8977 407.012 64.286 407.402 64.5625C407.796 64.839 408.258 64.9773 408.788 64.9773C409.137 64.9773 409.453 64.9167 409.737 64.7955C410.021 64.6742 410.262 64.5 410.459 64.2727C410.656 64.0455 410.796 63.7727 410.879 63.4545H412.22C412.144 63.9697 411.957 64.4337 411.658 64.8466C411.362 65.2557 410.97 65.5814 410.482 65.8239C409.997 66.0625 409.432 66.1818 408.788 66.1818Z" fill="#333333"/>
<path d="M451.25 66L447.25 60.6591H445.818V66H444.409V54.3636H445.818V59.4091H446.432L451.091 54.3636H452.773L448.068 59.4773L452.932 66H451.25ZM457.476 66.1818C456.688 66.1818 455.997 65.9943 455.402 65.6193C454.811 65.2443 454.349 64.7197 454.016 64.0455C453.686 63.3712 453.521 62.5833 453.521 61.6818C453.521 60.7727 453.686 59.9792 454.016 59.3011C454.349 58.6231 454.811 58.0966 455.402 57.7216C455.997 57.3466 456.688 57.1591 457.476 57.1591C458.264 57.1591 458.953 57.3466 459.544 57.7216C460.139 58.0966 460.601 58.6231 460.93 59.3011C461.264 59.9792 461.43 60.7727 461.43 61.6818C461.43 62.5833 461.264 63.3712 460.93 64.0455C460.601 64.7197 460.139 65.2443 459.544 65.6193C458.953 65.9943 458.264 66.1818 457.476 66.1818ZM457.476 64.9773C458.074 64.9773 458.567 64.8239 458.953 64.517C459.339 64.2102 459.625 63.8068 459.811 63.3068C459.997 62.8068 460.089 62.2652 460.089 61.6818C460.089 61.0985 459.997 60.5549 459.811 60.0511C459.625 59.5473 459.339 59.1402 458.953 58.8295C458.567 58.5189 458.074 58.3636 457.476 58.3636C456.877 58.3636 456.385 58.5189 455.999 58.8295C455.612 59.1402 455.326 59.5473 455.141 60.0511C454.955 60.5549 454.862 61.0985 454.862 61.6818C454.862 62.2652 454.955 62.8068 455.141 63.3068C455.326 63.8068 455.612 64.2102 455.999 64.517C456.385 64.8239 456.877 64.9773 457.476 64.9773ZM469.318 61.0227V62.2727H464.5V61.0227H469.318ZM464.818 57.2727V66H463.477V57.2727H464.818ZM470.341 57.2727V66H469V57.2727H470.341ZM471.602 58.5227V57.2727H478.693V58.5227H475.83V66H474.489V58.5227H471.602ZM482.764 66.2045C482.211 66.2045 481.709 66.1004 481.259 65.892C480.808 65.6799 480.45 65.375 480.185 64.9773C479.92 64.5758 479.787 64.0909 479.787 63.5227C479.787 63.0227 479.885 62.6174 480.082 62.3068C480.279 61.9924 480.543 61.7462 480.872 61.5682C481.202 61.3902 481.565 61.2576 481.963 61.1705C482.365 61.0795 482.768 61.0076 483.173 60.9545C483.704 60.8864 484.134 60.8352 484.463 60.8011C484.796 60.7633 485.039 60.7008 485.19 60.6136C485.346 60.5265 485.423 60.375 485.423 60.1591V60.1136C485.423 59.553 485.27 59.1174 484.963 58.8068C484.66 58.4962 484.2 58.3409 483.582 58.3409C482.942 58.3409 482.44 58.4811 482.077 58.7614C481.713 59.0417 481.457 59.3409 481.31 59.6591L480.037 59.2045C480.264 58.6742 480.567 58.2614 480.946 57.9659C481.329 57.6667 481.745 57.4583 482.196 57.3409C482.651 57.2197 483.098 57.1591 483.537 57.1591C483.817 57.1591 484.139 57.1932 484.503 57.2614C484.87 57.3258 485.224 57.4602 485.565 57.6648C485.91 57.8693 486.196 58.178 486.423 58.5909C486.651 59.0038 486.764 59.5568 486.764 60.25V66H485.423V64.8182H485.355C485.264 65.0076 485.113 65.2102 484.901 65.4261C484.688 65.642 484.406 65.8258 484.054 65.9773C483.702 66.1288 483.272 66.2045 482.764 66.2045ZM482.969 65C483.499 65 483.946 64.8958 484.31 64.6875C484.677 64.4792 484.954 64.2102 485.139 63.8807C485.329 63.5511 485.423 63.2045 485.423 62.8409V61.6136C485.366 61.6818 485.241 61.7443 485.048 61.8011C484.859 61.8542 484.639 61.9015 484.389 61.9432C484.143 61.9811 483.902 62.0152 483.668 62.0455C483.437 62.072 483.249 62.0947 483.105 62.1136C482.757 62.1591 482.431 62.233 482.128 62.3352C481.829 62.4337 481.586 62.5833 481.401 62.7841C481.219 62.9811 481.128 63.25 481.128 63.5909C481.128 64.0568 481.3 64.4091 481.645 64.6477C481.993 64.8826 482.435 65 482.969 65ZM489.212 66V57.2727H490.553V61.0682H491.439L494.575 57.2727H496.303L492.78 61.4773L496.348 66H494.621L491.757 62.3182H490.553V66H489.212ZM497.305 58.5227V57.2727H504.396V58.5227H501.533V66H500.192V58.5227H497.305ZM507.511 60.4318H510.011C511.034 60.4318 511.816 60.6913 512.358 61.2102C512.9 61.7292 513.17 62.3864 513.17 63.1818C513.17 63.7045 513.049 64.1799 512.807 64.608C512.564 65.0322 512.208 65.3712 511.739 65.625C511.269 65.875 510.693 66 510.011 66H506.352V57.2727H507.693V64.75H510.011C510.542 64.75 510.977 64.6098 511.318 64.3295C511.659 64.0492 511.83 63.6894 511.83 63.25C511.83 62.7879 511.659 62.411 511.318 62.1193C510.977 61.8277 510.542 61.6818 510.011 61.6818H507.511V60.4318ZM514.557 66V57.2727H515.898V66H514.557Z" fill="#333333"/>
<path d="M549.886 66H548.409L552.682 54.3636H554.136L558.409 66H556.932L553.455 56.2045H553.364L549.886 66ZM550.432 61.4545H556.386V62.7045H550.432V61.4545ZM559.108 68.5V64.75H559.835C560.013 64.5644 560.167 64.3636 560.295 64.1477C560.424 63.9318 560.536 63.6761 560.631 63.3807C560.729 63.0814 560.813 62.7178 560.881 62.2898C560.949 61.858 561.009 61.3371 561.062 60.7273L561.358 57.2727H566.903V64.75H568.244V68.5H566.903V66H560.449V68.5H559.108ZM561.358 64.75H565.562V58.5227H562.608L562.381 60.7273C562.286 61.6402 562.169 62.4375 562.028 63.1193C561.888 63.8011 561.665 64.3447 561.358 64.75ZM570.024 69.2727V57.2727H571.32V58.6591H571.479C571.577 58.5076 571.714 58.3144 571.888 58.0795C572.066 57.8409 572.32 57.6288 572.649 57.4432C572.982 57.2538 573.433 57.1591 574.001 57.1591C574.736 57.1591 575.384 57.3428 575.945 57.7102C576.505 58.0777 576.943 58.5985 577.257 59.2727C577.571 59.947 577.729 60.7424 577.729 61.6591C577.729 62.5833 577.571 63.3845 577.257 64.0625C576.943 64.7367 576.507 65.2595 575.95 65.6307C575.393 65.9981 574.751 66.1818 574.024 66.1818C573.464 66.1818 573.015 66.089 572.678 65.9034C572.34 65.714 572.081 65.5 571.899 65.2614C571.717 65.0189 571.577 64.8182 571.479 64.6591H571.365V69.2727H570.024ZM571.342 61.6364C571.342 62.2955 571.439 62.8769 571.632 63.3807C571.825 63.8807 572.107 64.2727 572.479 64.5568C572.85 64.8371 573.304 64.9773 573.842 64.9773C574.403 64.9773 574.871 64.8295 575.246 64.5341C575.625 64.2348 575.909 63.8333 576.098 63.3295C576.291 62.822 576.388 62.2576 576.388 61.6364C576.388 61.0227 576.293 60.4697 576.104 59.9773C575.918 59.4811 575.636 59.089 575.257 58.8011C574.882 58.5095 574.411 58.3636 573.842 58.3636C573.297 58.3636 572.839 58.5019 572.467 58.7784C572.096 59.0511 571.816 59.4337 571.626 59.9261C571.437 60.4148 571.342 60.9848 571.342 61.6364ZM583.433 66.1818C582.592 66.1818 581.867 65.9962 581.257 65.625C580.651 65.25 580.183 64.7273 579.854 64.0568C579.528 63.3826 579.365 62.5985 579.365 61.7045C579.365 60.8106 579.528 60.0227 579.854 59.3409C580.183 58.6553 580.642 58.1212 581.229 57.7386C581.82 57.3523 582.509 57.1591 583.297 57.1591C583.751 57.1591 584.2 57.2348 584.643 57.3864C585.087 57.5379 585.49 57.7841 585.854 58.125C586.217 58.4621 586.507 58.9091 586.723 59.4659C586.939 60.0227 587.047 60.7083 587.047 61.5227V62.0909H580.32V60.9318H585.683C585.683 60.4394 585.585 60 585.388 59.6136C585.195 59.2273 584.918 58.9223 584.558 58.6989C584.202 58.4754 583.782 58.3636 583.297 58.3636C582.763 58.3636 582.301 58.4962 581.911 58.7614C581.524 59.0227 581.227 59.3636 581.018 59.7841C580.81 60.2045 580.706 60.6553 580.706 61.1364V61.9091C580.706 62.5682 580.82 63.1269 581.047 63.5852C581.278 64.0398 581.598 64.3864 582.007 64.625C582.416 64.8598 582.892 64.9773 583.433 64.9773C583.786 64.9773 584.104 64.928 584.388 64.8295C584.676 64.7273 584.924 64.5758 585.132 64.375C585.34 64.1705 585.501 63.9167 585.615 63.6136L586.911 63.9773C586.774 64.4167 586.545 64.803 586.223 65.1364C585.901 65.4659 585.503 65.7235 585.03 65.9091C584.556 66.0909 584.024 66.1818 583.433 66.1818ZM592.632 66.1818C591.814 66.1818 591.109 65.9886 590.518 65.6023C589.928 65.2159 589.473 64.6837 589.155 64.0057C588.837 63.3277 588.678 62.553 588.678 61.6818C588.678 60.7955 588.84 60.0133 589.166 59.3352C589.496 58.6534 589.954 58.1212 590.541 57.7386C591.132 57.3523 591.821 57.1591 592.609 57.1591C593.223 57.1591 593.776 57.2727 594.268 57.5C594.761 57.7273 595.164 58.0455 595.479 58.4545C595.793 58.8636 595.988 59.3409 596.064 59.8864H594.723C594.621 59.4886 594.393 59.1364 594.041 58.8295C593.693 58.5189 593.223 58.3636 592.632 58.3636C592.109 58.3636 591.651 58.5 591.257 58.7727C590.867 59.0417 590.562 59.4223 590.342 59.9148C590.126 60.4034 590.018 60.9773 590.018 61.6364C590.018 62.3106 590.125 62.8977 590.337 63.3977C590.553 63.8977 590.856 64.286 591.246 64.5625C591.64 64.839 592.102 64.9773 592.632 64.9773C592.981 64.9773 593.297 64.9167 593.581 64.7955C593.865 64.6742 594.106 64.5 594.303 64.2727C594.5 64.0455 594.64 63.7727 594.723 63.4545H596.064C595.988 63.9697 595.801 64.4337 595.501 64.8466C595.206 65.2557 594.814 65.5814 594.325 65.8239C593.84 66.0625 593.276 66.1818 592.632 66.1818ZM600.592 66.2045C600.039 66.2045 599.537 66.1004 599.087 65.892C598.636 65.6799 598.278 65.375 598.013 64.9773C597.748 64.5758 597.615 64.0909 597.615 63.5227C597.615 63.0227 597.714 62.6174 597.911 62.3068C598.107 61.9924 598.371 61.7462 598.7 61.5682C599.03 61.3902 599.393 61.2576 599.791 61.1705C600.193 61.0795 600.596 61.0076 601.001 60.9545C601.532 60.8864 601.962 60.8352 602.291 60.8011C602.625 60.7633 602.867 60.7008 603.018 60.6136C603.174 60.5265 603.251 60.375 603.251 60.1591V60.1136C603.251 59.553 603.098 59.1174 602.791 58.8068C602.488 58.4962 602.028 58.3409 601.411 58.3409C600.77 58.3409 600.268 58.4811 599.905 58.7614C599.541 59.0417 599.286 59.3409 599.138 59.6591L597.865 59.2045C598.092 58.6742 598.395 58.2614 598.774 57.9659C599.157 57.6667 599.573 57.4583 600.024 57.3409C600.479 57.2197 600.926 57.1591 601.365 57.1591C601.645 57.1591 601.967 57.1932 602.331 57.2614C602.698 57.3258 603.053 57.4602 603.393 57.6648C603.738 57.8693 604.024 58.178 604.251 58.5909C604.479 59.0038 604.592 59.5568 604.592 60.25V66H603.251V64.8182H603.183C603.092 65.0076 602.941 65.2102 602.729 65.4261C602.517 65.642 602.234 65.8258 601.882 65.9773C601.53 66.1288 601.1 66.2045 600.592 66.2045ZM600.797 65C601.327 65 601.774 64.8958 602.138 64.6875C602.505 64.4792 602.782 64.2102 602.967 63.8807C603.157 63.5511 603.251 63.2045 603.251 62.8409V61.6136C603.195 61.6818 603.07 61.7443 602.876 61.8011C602.687 61.8542 602.467 61.9015 602.217 61.9432C601.971 61.9811 601.731 62.0152 601.496 62.0455C601.265 62.072 601.077 62.0947 600.933 62.1136C600.585 62.1591 600.259 62.233 599.956 62.3352C599.657 62.4337 599.414 62.5833 599.229 62.7841C599.047 62.9811 598.956 63.25 598.956 63.5909C598.956 64.0568 599.128 64.4091 599.473 64.6477C599.821 64.8826 600.263 65 600.797 65Z" fill="#333333"/>
<path d="M1419.64 63.9545V56.4545H1420.91V63.9545H1419.64ZM1416.52 60.8409V59.5682H1424.02V60.8409H1416.52ZM1426.76 66L1431.96 55.7045V55.6136H1425.96V54.3636H1433.41V55.6818L1428.23 66H1426.76ZM1440.53 60.1818C1440.53 58.75 1440.72 57.4337 1441.09 56.233C1441.46 55.0284 1442 53.9205 1442.69 52.9091H1443.87C1443.6 53.2841 1443.35 53.7462 1443.11 54.2955C1442.87 54.8409 1442.67 55.4413 1442.49 56.0966C1442.31 56.7481 1442.17 57.4223 1442.07 58.1193C1441.97 58.8163 1441.92 59.5038 1441.92 60.1818C1441.92 61.0833 1442.01 61.9981 1442.18 62.9261C1442.35 63.8542 1442.59 64.7159 1442.88 65.5114C1443.18 66.3068 1443.51 66.9545 1443.87 67.4545H1442.69C1442 66.4432 1441.46 65.3371 1441.09 64.1364C1440.72 62.9318 1440.53 61.6136 1440.53 60.1818ZM1449.56 66.1591C1448.78 66.1591 1448.09 66.0208 1447.49 65.7443C1446.89 65.464 1446.43 65.0795 1446.1 64.5909C1445.76 64.0985 1445.6 63.5379 1445.6 62.9091C1445.6 62.4167 1445.7 61.9621 1445.89 61.5455C1446.09 61.125 1446.36 60.7746 1446.7 60.4943C1447.04 60.2102 1447.43 60.0303 1447.85 59.9545V59.8864C1447.3 59.7424 1446.85 59.4299 1446.52 58.9489C1446.19 58.464 1446.03 57.9129 1446.03 57.2955C1446.03 56.7045 1446.18 56.1761 1446.48 55.7102C1446.79 55.2443 1447.2 54.8769 1447.73 54.608C1448.27 54.339 1448.88 54.2045 1449.56 54.2045C1450.23 54.2045 1450.83 54.339 1451.36 54.608C1451.89 54.8769 1452.31 55.2443 1452.61 55.7102C1452.92 56.1761 1453.08 56.7045 1453.08 57.2955C1453.08 57.9129 1452.91 58.464 1452.57 58.9489C1452.24 59.4299 1451.81 59.7424 1451.26 59.8864V59.9545C1451.68 60.0303 1452.06 60.2102 1452.4 60.4943C1452.73 60.7746 1453 61.125 1453.2 61.5455C1453.41 61.9621 1453.51 62.4167 1453.51 62.9091C1453.51 63.5379 1453.34 64.0985 1453 64.5909C1452.67 65.0795 1452.2 65.464 1451.61 65.7443C1451.02 66.0208 1450.33 66.1591 1449.56 66.1591ZM1449.56 64.9091C1450.08 64.9091 1450.54 64.8239 1450.92 64.6534C1451.3 64.483 1451.6 64.2424 1451.81 63.9318C1452.02 63.6212 1452.12 63.2576 1452.12 62.8409C1452.12 62.4015 1452.01 62.0133 1451.78 61.6761C1451.56 61.339 1451.26 61.0739 1450.87 60.8807C1450.49 60.6875 1450.05 60.5909 1449.56 60.5909C1449.06 60.5909 1448.62 60.6875 1448.23 60.8807C1447.84 61.0739 1447.54 61.339 1447.31 61.6761C1447.09 62.0133 1446.98 62.4015 1446.99 62.8409C1446.98 63.2576 1447.09 63.6212 1447.29 63.9318C1447.5 64.2424 1447.8 64.483 1448.18 64.6534C1448.57 64.8239 1449.03 64.9091 1449.56 64.9091ZM1449.56 59.3864C1449.97 59.3864 1450.34 59.303 1450.66 59.1364C1450.99 58.9697 1451.25 58.7367 1451.43 58.4375C1451.62 58.1383 1451.71 57.7879 1451.72 57.3864C1451.71 56.9924 1451.62 56.6496 1451.44 56.358C1451.26 56.0625 1451 55.8352 1450.68 55.6761C1450.36 55.5133 1449.98 55.4318 1449.56 55.4318C1449.12 55.4318 1448.74 55.5133 1448.41 55.6761C1448.09 55.8352 1447.84 56.0625 1447.66 56.358C1447.48 56.6496 1447.39 56.9924 1447.4 57.3864C1447.39 57.7879 1447.48 58.1383 1447.66 58.4375C1447.85 58.7367 1448.11 58.9697 1448.43 59.1364C1448.76 59.303 1449.13 59.3864 1449.56 59.3864ZM1455.42 63.6136V62.4545L1460.53 54.3636H1461.37V56.1591H1460.8L1456.94 62.2727V62.3636H1463.83V63.6136H1455.42ZM1460.89 66V63.2614V62.7216V54.3636H1462.23V66H1460.89ZM1469.59 66.1591C1468.92 66.1591 1468.32 66.0265 1467.79 65.7614C1467.26 65.4962 1466.83 65.1326 1466.51 64.6705C1466.18 64.2083 1466.01 63.6818 1465.98 63.0909H1467.34C1467.39 63.6174 1467.63 64.053 1468.06 64.3977C1468.48 64.7386 1469 64.9091 1469.59 64.9091C1470.07 64.9091 1470.49 64.7973 1470.86 64.5739C1471.24 64.3504 1471.53 64.0436 1471.74 63.6534C1471.96 63.2595 1472.07 62.8144 1472.07 62.3182C1472.07 61.8106 1471.96 61.358 1471.73 60.9602C1471.51 60.5587 1471.21 60.2424 1470.82 60.0114C1470.44 59.7803 1470 59.6629 1469.5 59.6591C1469.14 59.6553 1468.78 59.7102 1468.4 59.8239C1468.03 59.9337 1467.72 60.0758 1467.48 60.25L1466.16 60.0909L1466.86 54.3636H1472.91V55.6136H1468.05L1467.64 59.0455H1467.7C1467.94 58.8561 1468.24 58.6989 1468.6 58.5739C1468.96 58.4489 1469.34 58.3864 1469.73 58.3864C1470.44 58.3864 1471.07 58.5568 1471.63 58.8977C1472.19 59.2348 1472.63 59.697 1472.95 60.2841C1473.27 60.8712 1473.43 61.5417 1473.43 62.2955C1473.43 63.0379 1473.27 63.7008 1472.93 64.2841C1472.6 64.8636 1472.15 65.322 1471.57 65.6591C1470.99 65.9924 1470.33 66.1591 1469.59 66.1591ZM1475.69 66V64.9773L1479.53 60.7727C1479.98 60.2803 1480.35 59.8523 1480.64 59.4886C1480.94 59.1212 1481.15 58.7765 1481.29 58.4545C1481.44 58.1288 1481.51 57.7879 1481.51 57.4318C1481.51 57.0227 1481.41 56.6686 1481.21 56.3693C1481.02 56.0701 1480.75 55.839 1480.42 55.6761C1480.08 55.5133 1479.7 55.4318 1479.28 55.4318C1478.83 55.4318 1478.44 55.5246 1478.11 55.7102C1477.78 55.892 1477.52 56.1477 1477.34 56.4773C1477.16 56.8068 1477.08 57.1932 1477.08 57.6364H1475.73C1475.73 56.9545 1475.89 56.3561 1476.21 55.8409C1476.52 55.3258 1476.95 54.9242 1477.49 54.6364C1478.04 54.3485 1478.65 54.2045 1479.33 54.2045C1480.01 54.2045 1480.61 54.3485 1481.14 54.6364C1481.66 54.9242 1482.08 55.3125 1482.38 55.8011C1482.68 56.2898 1482.83 56.8333 1482.83 57.4318C1482.83 57.8598 1482.75 58.2784 1482.59 58.6875C1482.44 59.0928 1482.18 59.5455 1481.8 60.0455C1481.42 60.5417 1480.9 61.1477 1480.23 61.8636L1477.62 64.6591V64.75H1483.03V66H1475.69ZM1488.26 60.1818C1488.26 61.6136 1488.08 62.9318 1487.7 64.1364C1487.33 65.3371 1486.8 66.4432 1486.1 67.4545H1484.92C1485.19 67.0795 1485.45 66.6174 1485.68 66.0682C1485.92 65.5227 1486.13 64.9242 1486.31 64.2727C1486.49 63.6174 1486.62 62.9413 1486.72 62.2443C1486.83 61.5436 1486.88 60.8561 1486.88 60.1818C1486.88 59.2803 1486.79 58.3655 1486.62 57.4375C1486.44 56.5095 1486.21 55.6477 1485.91 54.8523C1485.62 54.0568 1485.29 53.4091 1484.92 52.9091H1486.1C1486.8 53.9205 1487.33 55.0284 1487.7 56.233C1488.08 57.4337 1488.26 58.75 1488.26 60.1818ZM1496.04 66L1501.24 55.7045V55.6136H1495.24V54.3636H1502.7V55.6818L1497.51 66H1496.04ZM1508.29 66.1591C1507.63 66.1591 1507.03 66.0265 1506.49 65.7614C1505.96 65.4962 1505.53 65.1326 1505.21 64.6705C1504.89 64.2083 1504.71 63.6818 1504.68 63.0909H1506.04C1506.1 63.6174 1506.34 64.053 1506.76 64.3977C1507.19 64.7386 1507.7 64.9091 1508.29 64.9091C1508.77 64.9091 1509.2 64.7973 1509.57 64.5739C1509.94 64.3504 1510.24 64.0436 1510.45 63.6534C1510.66 63.2595 1510.77 62.8144 1510.77 62.3182C1510.77 61.8106 1510.66 61.358 1510.44 60.9602C1510.22 60.5587 1509.91 60.2424 1509.53 60.0114C1509.14 59.7803 1508.7 59.6629 1508.2 59.6591C1507.85 59.6553 1507.48 59.7102 1507.11 59.8239C1506.73 59.9337 1506.42 60.0758 1506.18 60.25L1504.86 60.0909L1505.57 54.3636H1511.61V55.6136H1506.75L1506.34 59.0455H1506.41C1506.65 58.8561 1506.95 58.6989 1507.31 58.5739C1507.67 58.4489 1508.04 58.3864 1508.43 58.3864C1509.14 58.3864 1509.78 58.5568 1510.33 58.8977C1510.89 59.2348 1511.33 59.697 1511.65 60.2841C1511.97 60.8712 1512.13 61.5417 1512.13 62.2955C1512.13 63.0379 1511.97 63.7008 1511.63 64.2841C1511.31 64.8636 1510.85 65.322 1510.27 65.6591C1509.69 65.9924 1509.03 66.1591 1508.29 66.1591ZM1519.41 59.5568V60.8068H1514.32V59.5568H1519.41ZM1525.48 66.1591C1524.7 66.1591 1524.01 66.0208 1523.41 65.7443C1522.82 65.464 1522.35 65.0795 1522.02 64.5909C1521.69 64.0985 1521.52 63.5379 1521.52 62.9091C1521.52 62.4167 1521.62 61.9621 1521.81 61.5455C1522.01 61.125 1522.28 60.7746 1522.62 60.4943C1522.97 60.2102 1523.35 60.0303 1523.77 59.9545V59.8864C1523.22 59.7424 1522.77 59.4299 1522.44 58.9489C1522.12 58.464 1521.95 57.9129 1521.96 57.2955C1521.95 56.7045 1522.1 56.1761 1522.4 55.7102C1522.71 55.2443 1523.12 54.8769 1523.65 54.608C1524.19 54.339 1524.8 54.2045 1525.48 54.2045C1526.15 54.2045 1526.76 54.339 1527.29 54.608C1527.82 54.8769 1528.23 55.2443 1528.54 55.7102C1528.84 56.1761 1529 56.7045 1529 57.2955C1529 57.9129 1528.83 58.464 1528.5 58.9489C1528.17 59.4299 1527.73 59.7424 1527.18 59.8864V59.9545C1527.6 60.0303 1527.98 60.2102 1528.32 60.4943C1528.66 60.7746 1528.93 61.125 1529.13 61.5455C1529.33 61.9621 1529.43 62.4167 1529.43 62.9091C1529.43 63.5379 1529.26 64.0985 1528.92 64.5909C1528.59 65.0795 1528.12 65.464 1527.53 65.7443C1526.94 66.0208 1526.26 66.1591 1525.48 66.1591ZM1525.48 64.9091C1526.01 64.9091 1526.46 64.8239 1526.84 64.6534C1527.22 64.483 1527.52 64.2424 1527.73 63.9318C1527.94 63.6212 1528.04 63.2576 1528.05 62.8409C1528.04 62.4015 1527.93 62.0133 1527.71 61.6761C1527.48 61.339 1527.18 61.0739 1526.79 60.8807C1526.41 60.6875 1525.97 60.5909 1525.48 60.5909C1524.98 60.5909 1524.54 60.6875 1524.15 60.8807C1523.76 61.0739 1523.46 61.339 1523.23 61.6761C1523.01 62.0133 1522.91 62.4015 1522.91 62.8409C1522.91 63.2576 1523.01 63.6212 1523.21 63.9318C1523.42 64.2424 1523.72 64.483 1524.1 64.6534C1524.49 64.8239 1524.95 64.9091 1525.48 64.9091ZM1525.48 59.3864C1525.9 59.3864 1526.26 59.303 1526.59 59.1364C1526.91 58.9697 1527.17 58.7367 1527.35 58.4375C1527.54 58.1383 1527.63 57.7879 1527.64 57.3864C1527.63 56.9924 1527.54 56.6496 1527.36 56.358C1527.18 56.0625 1526.93 55.8352 1526.6 55.6761C1526.28 55.5133 1525.91 55.4318 1525.48 55.4318C1525.04 55.4318 1524.66 55.5133 1524.34 55.6761C1524.01 55.8352 1523.76 56.0625 1523.58 56.358C1523.4 56.6496 1523.32 56.9924 1523.32 57.3864C1523.32 57.7879 1523.4 58.1383 1523.59 58.4375C1523.77 58.7367 1524.03 58.9697 1524.35 59.1364C1524.68 59.303 1525.05 59.3864 1525.48 59.3864ZM1535.25 66.1591C1534.58 66.1591 1533.98 66.0265 1533.45 65.7614C1532.91 65.4962 1532.48 65.1326 1532.16 64.6705C1531.84 64.2083 1531.66 63.6818 1531.63 63.0909H1533C1533.05 63.6174 1533.29 64.053 1533.71 64.3977C1534.14 64.7386 1534.65 64.9091 1535.25 64.9091C1535.72 64.9091 1536.15 64.7973 1536.52 64.5739C1536.89 64.3504 1537.19 64.0436 1537.4 63.6534C1537.62 63.2595 1537.72 62.8144 1537.72 62.3182C1537.72 61.8106 1537.61 61.358 1537.39 60.9602C1537.17 60.5587 1536.87 60.2424 1536.48 60.0114C1536.09 59.7803 1535.65 59.6629 1535.16 59.6591C1534.8 59.6553 1534.43 59.7102 1534.06 59.8239C1533.68 59.9337 1533.38 60.0758 1533.13 60.25L1531.82 60.0909L1532.52 54.3636H1538.57V55.6136H1533.7L1533.29 59.0455H1533.36C1533.6 58.8561 1533.9 58.6989 1534.26 58.5739C1534.62 58.4489 1534.99 58.3864 1535.38 58.3864C1536.1 58.3864 1536.73 58.5568 1537.29 58.8977C1537.85 59.2348 1538.29 59.697 1538.61 60.2841C1538.93 60.8712 1539.09 61.5417 1539.09 62.2955C1539.09 63.0379 1538.92 63.7008 1538.59 64.2841C1538.26 64.8636 1537.8 65.322 1537.22 65.6591C1536.64 65.9924 1535.99 66.1591 1535.25 66.1591ZM1546.37 59.5568V60.8068H1541.28V59.5568H1546.37ZM1552.43 66.1591C1551.65 66.1591 1550.96 66.0208 1550.36 65.7443C1549.77 65.464 1549.3 65.0795 1548.97 64.5909C1548.64 64.0985 1548.47 63.5379 1548.48 62.9091C1548.47 62.4167 1548.57 61.9621 1548.77 61.5455C1548.96 61.125 1549.23 60.7746 1549.57 60.4943C1549.92 60.2102 1550.3 60.0303 1550.73 59.9545V59.8864C1550.17 59.7424 1549.73 59.4299 1549.4 58.9489C1549.07 58.464 1548.91 57.9129 1548.91 57.2955C1548.91 56.7045 1549.05 56.1761 1549.36 55.7102C1549.66 55.2443 1550.08 54.8769 1550.61 54.608C1551.14 54.339 1551.75 54.2045 1552.43 54.2045C1553.11 54.2045 1553.71 54.339 1554.24 54.608C1554.77 54.8769 1555.19 55.2443 1555.49 55.7102C1555.8 56.1761 1555.95 56.7045 1555.95 57.2955C1555.95 57.9129 1555.78 58.464 1555.45 58.9489C1555.12 59.4299 1554.68 59.7424 1554.14 59.8864V59.9545C1554.56 60.0303 1554.94 60.2102 1555.27 60.4943C1555.61 60.7746 1555.88 61.125 1556.08 61.5455C1556.28 61.9621 1556.38 62.4167 1556.39 62.9091C1556.38 63.5379 1556.21 64.0985 1555.88 64.5909C1555.54 65.0795 1555.08 65.464 1554.48 65.7443C1553.89 66.0208 1553.21 66.1591 1552.43 66.1591ZM1552.43 64.9091C1552.96 64.9091 1553.41 64.8239 1553.8 64.6534C1554.18 64.483 1554.47 64.2424 1554.68 63.9318C1554.89 63.6212 1555 63.2576 1555 62.8409C1555 62.4015 1554.88 62.0133 1554.66 61.6761C1554.44 61.339 1554.13 61.0739 1553.74 60.8807C1553.36 60.6875 1552.92 60.5909 1552.43 60.5909C1551.94 60.5909 1551.49 60.6875 1551.1 60.8807C1550.72 61.0739 1550.41 61.339 1550.19 61.6761C1549.97 62.0133 1549.86 62.4015 1549.86 62.8409C1549.86 63.2576 1549.96 63.6212 1550.16 63.9318C1550.37 64.2424 1550.67 64.483 1551.06 64.6534C1551.44 64.8239 1551.9 64.9091 1552.43 64.9091ZM1552.43 59.3864C1552.85 59.3864 1553.22 59.303 1553.54 59.1364C1553.87 58.9697 1554.12 58.7367 1554.31 58.4375C1554.49 58.1383 1554.59 57.7879 1554.59 57.3864C1554.59 56.9924 1554.49 56.6496 1554.31 56.358C1554.13 56.0625 1553.88 55.8352 1553.56 55.6761C1553.23 55.5133 1552.86 55.4318 1552.43 55.4318C1552 55.4318 1551.62 55.5133 1551.29 55.6761C1550.96 55.8352 1550.71 56.0625 1550.53 56.358C1550.36 56.6496 1550.27 56.9924 1550.27 57.3864C1550.27 57.7879 1550.36 58.1383 1550.54 58.4375C1550.73 58.7367 1550.98 58.9697 1551.31 59.1364C1551.63 59.303 1552.01 59.3864 1552.43 59.3864ZM1562.5 66.1591C1561.75 66.1591 1561.08 66.0303 1560.49 65.7727C1559.91 65.5152 1559.44 65.1572 1559.1 64.6989C1558.76 64.2367 1558.57 63.7008 1558.54 63.0909H1559.97C1560 63.4659 1560.13 63.7898 1560.36 64.0625C1560.59 64.3314 1560.88 64.5398 1561.25 64.6875C1561.62 64.8352 1562.03 64.9091 1562.47 64.9091C1562.97 64.9091 1563.42 64.822 1563.8 64.6477C1564.19 64.4735 1564.49 64.2311 1564.71 63.9205C1564.93 63.6098 1565.04 63.25 1565.04 62.8409C1565.04 62.4129 1564.94 62.036 1564.72 61.7102C1564.51 61.3807 1564.2 61.1231 1563.79 60.9375C1563.38 60.7519 1562.88 60.6591 1562.29 60.6591H1561.36V59.4091H1562.29C1562.75 59.4091 1563.16 59.3258 1563.51 59.1591C1563.86 58.9924 1564.13 58.7576 1564.33 58.4545C1564.53 58.1515 1564.63 57.7955 1564.63 57.3864C1564.63 56.9924 1564.54 56.6496 1564.37 56.358C1564.2 56.0663 1563.95 55.839 1563.63 55.6761C1563.32 55.5133 1562.95 55.4318 1562.52 55.4318C1562.12 55.4318 1561.74 55.5057 1561.38 55.6534C1561.03 55.7973 1560.74 56.0076 1560.52 56.2841C1560.29 56.5568 1560.17 56.8864 1560.15 57.2727H1558.79C1558.81 56.6629 1559 56.1288 1559.34 55.6705C1559.69 55.2083 1560.14 54.8485 1560.69 54.5909C1561.26 54.3333 1561.87 54.2045 1562.54 54.2045C1563.26 54.2045 1563.88 54.3504 1564.39 54.642C1564.91 54.9299 1565.3 55.3106 1565.58 55.7841C1565.86 56.2576 1566 56.7689 1566 57.3182C1566 57.9735 1565.82 58.5322 1565.48 58.9943C1565.14 59.4564 1564.67 59.7765 1564.09 59.9545V60.0455C1564.82 60.1667 1565.4 60.4792 1565.81 60.983C1566.22 61.483 1566.43 62.1023 1566.43 62.8409C1566.43 63.4735 1566.26 64.0417 1565.91 64.5455C1565.57 65.0455 1565.1 65.4394 1564.51 65.7273C1563.92 66.0152 1563.25 66.1591 1562.5 66.1591Z" fill="#333333"/>
<path d="M1266.77 58H1265.36C1265.28 57.5947 1265.13 57.2386 1264.93 56.9318C1264.72 56.625 1264.47 56.3674 1264.18 56.1591C1263.88 55.947 1263.56 55.7879 1263.2 55.6818C1262.85 55.5758 1262.48 55.5227 1262.09 55.5227C1261.39 55.5227 1260.75 55.7008 1260.18 56.0568C1259.61 56.4129 1259.16 56.9375 1258.82 57.6307C1258.48 58.3239 1258.32 59.1742 1258.32 60.1818C1258.32 61.1894 1258.48 62.0398 1258.82 62.733C1259.16 63.4261 1259.61 63.9508 1260.18 64.3068C1260.75 64.6629 1261.39 64.8409 1262.09 64.8409C1262.48 64.8409 1262.85 64.7879 1263.2 64.6818C1263.56 64.5758 1263.88 64.4186 1264.18 64.2102C1264.47 63.9981 1264.72 63.7386 1264.93 63.4318C1265.13 63.1212 1265.28 62.7652 1265.36 62.3636H1266.77C1266.67 62.9583 1266.47 63.4905 1266.19 63.9602C1265.91 64.4299 1265.56 64.8295 1265.15 65.1591C1264.73 65.4848 1264.26 65.733 1263.74 65.9034C1263.23 66.0739 1262.68 66.1591 1262.09 66.1591C1261.1 66.1591 1260.22 65.9167 1259.44 65.4318C1258.67 64.947 1258.06 64.2576 1257.62 63.3636C1257.18 62.4697 1256.95 61.4091 1256.95 60.1818C1256.95 58.9545 1257.18 57.8939 1257.62 57C1258.06 56.1061 1258.67 55.4167 1259.44 54.9318C1260.22 54.447 1261.1 54.2045 1262.09 54.2045C1262.68 54.2045 1263.23 54.2898 1263.74 54.4602C1264.26 54.6307 1264.73 54.8807 1265.15 55.2102C1265.56 55.536 1265.91 55.9337 1266.19 56.4034C1266.47 56.8693 1266.67 57.4015 1266.77 58ZM1277.44 54.3636V66H1276.03V55.8409H1275.96L1273.12 57.7273V56.2955L1276.03 54.3636H1277.44ZM1284.58 66.1591C1283.72 66.1591 1282.99 65.9261 1282.39 65.4602C1281.79 64.9905 1281.33 64.3106 1281.01 63.4205C1280.69 62.5265 1280.53 61.447 1280.53 60.1818C1280.53 58.9242 1280.69 57.8504 1281.01 56.9602C1281.33 56.0663 1281.79 55.3845 1282.4 54.9148C1283 54.4413 1283.73 54.2045 1284.58 54.2045C1285.43 54.2045 1286.15 54.4413 1286.75 54.9148C1287.36 55.3845 1287.82 56.0663 1288.14 56.9602C1288.46 57.8504 1288.62 58.9242 1288.62 60.1818C1288.62 61.447 1288.46 62.5265 1288.15 63.4205C1287.83 64.3106 1287.37 64.9905 1286.77 65.4602C1286.16 65.9261 1285.43 66.1591 1284.58 66.1591ZM1284.58 64.9091C1285.43 64.9091 1286.09 64.5 1286.56 63.6818C1287.03 62.8636 1287.26 61.697 1287.26 60.1818C1287.26 59.1742 1287.15 58.3163 1286.94 57.608C1286.72 56.8996 1286.42 56.3598 1286.02 55.9886C1285.62 55.6174 1285.14 55.4318 1284.58 55.4318C1283.74 55.4318 1283.08 55.8466 1282.61 56.6761C1282.13 57.5019 1281.9 58.6705 1281.9 60.1818C1281.9 61.1894 1282 62.0455 1282.21 62.75C1282.43 63.4545 1282.73 63.9905 1283.13 64.358C1283.53 64.7254 1284.01 64.9091 1284.58 64.9091ZM1291.78 64.5114C1291.5 64.5114 1291.26 64.411 1291.06 64.2102C1290.86 64.0095 1290.76 63.7689 1290.76 63.4886C1290.76 63.2083 1290.86 62.9678 1291.06 62.767C1291.26 62.5663 1291.5 62.4659 1291.78 62.4659C1292.06 62.4659 1292.3 62.5663 1292.5 62.767C1292.71 62.9678 1292.81 63.2083 1292.81 63.4886C1292.81 63.6742 1292.76 63.8447 1292.66 64C1292.57 64.1553 1292.45 64.2803 1292.29 64.375C1292.14 64.4659 1291.97 64.5114 1291.78 64.5114ZM1291.78 58.625C1291.5 58.625 1291.26 58.5246 1291.06 58.3239C1290.86 58.1231 1290.76 57.8826 1290.76 57.6023C1290.76 57.322 1290.86 57.0814 1291.06 56.8807C1291.26 56.6799 1291.5 56.5795 1291.78 56.5795C1292.06 56.5795 1292.3 56.6799 1292.5 56.8807C1292.71 57.0814 1292.81 57.322 1292.81 57.6023C1292.81 57.7879 1292.76 57.9583 1292.66 58.1136C1292.57 58.2689 1292.45 58.3939 1292.29 58.4886C1292.14 58.5795 1291.97 58.625 1291.78 58.625ZM1298.98 66.1591C1298.13 66.1591 1297.4 65.9261 1296.8 65.4602C1296.19 64.9905 1295.73 64.3106 1295.42 63.4205C1295.1 62.5265 1294.94 61.447 1294.94 60.1818C1294.94 58.9242 1295.1 57.8504 1295.42 56.9602C1295.74 56.0663 1296.2 55.3845 1296.8 54.9148C1297.41 54.4413 1298.14 54.2045 1298.98 54.2045C1299.83 54.2045 1300.56 54.4413 1301.16 54.9148C1301.77 55.3845 1302.23 56.0663 1302.55 56.9602C1302.87 57.8504 1303.03 58.9242 1303.03 60.1818C1303.03 61.447 1302.87 62.5265 1302.55 63.4205C1302.23 64.3106 1301.77 64.9905 1301.17 65.4602C1300.57 65.9261 1299.84 66.1591 1298.98 66.1591ZM1298.98 64.9091C1299.83 64.9091 1300.49 64.5 1300.96 63.6818C1301.43 62.8636 1301.67 61.697 1301.67 60.1818C1301.67 59.1742 1301.56 58.3163 1301.34 57.608C1301.13 56.8996 1300.82 56.3598 1300.42 55.9886C1300.02 55.6174 1299.54 55.4318 1298.98 55.4318C1298.14 55.4318 1297.49 55.8466 1297.01 56.6761C1296.54 57.5019 1296.3 58.6705 1296.3 60.1818C1296.3 61.1894 1296.41 62.0455 1296.62 62.75C1296.83 63.4545 1297.14 63.9905 1297.54 64.358C1297.94 64.7254 1298.42 64.9091 1298.98 64.9091ZM1308.98 66.1591C1308.13 66.1591 1307.4 65.9261 1306.8 65.4602C1306.19 64.9905 1305.73 64.3106 1305.42 63.4205C1305.1 62.5265 1304.94 61.447 1304.94 60.1818C1304.94 58.9242 1305.1 57.8504 1305.42 56.9602C1305.74 56.0663 1306.2 55.3845 1306.8 54.9148C1307.41 54.4413 1308.14 54.2045 1308.98 54.2045C1309.83 54.2045 1310.56 54.4413 1311.16 54.9148C1311.77 55.3845 1312.23 56.0663 1312.55 56.9602C1312.87 57.8504 1313.03 58.9242 1313.03 60.1818C1313.03 61.447 1312.87 62.5265 1312.55 63.4205C1312.23 64.3106 1311.77 64.9905 1311.17 65.4602C1310.57 65.9261 1309.84 66.1591 1308.98 66.1591ZM1308.98 64.9091C1309.83 64.9091 1310.49 64.5 1310.96 63.6818C1311.43 62.8636 1311.67 61.697 1311.67 60.1818C1311.67 59.1742 1311.56 58.3163 1311.34 57.608C1311.13 56.8996 1310.82 56.3598 1310.42 55.9886C1310.02 55.6174 1309.54 55.4318 1308.98 55.4318C1308.14 55.4318 1307.49 55.8466 1307.01 56.6761C1306.54 57.5019 1306.3 58.6705 1306.3 60.1818C1306.3 61.1894 1306.41 62.0455 1306.62 62.75C1306.83 63.4545 1307.14 63.9905 1307.54 64.358C1307.94 64.7254 1308.42 64.9091 1308.98 64.9091ZM1318.78 68.5V64.75H1319.51C1319.69 64.5644 1319.84 64.3636 1319.97 64.1477C1320.1 63.9318 1320.21 63.6761 1320.3 63.3807C1320.4 63.0814 1320.48 62.7178 1320.55 62.2898C1320.62 61.858 1320.68 61.3371 1320.73 60.7273L1321.03 57.2727H1326.58V64.75H1327.92V68.5H1326.58V66H1320.12V68.5H1318.78ZM1321.03 64.75H1325.23V58.5227H1322.28L1322.05 60.7273C1321.96 61.6402 1321.84 62.4375 1321.7 63.1193C1321.56 63.8011 1321.34 64.3447 1321.03 64.75ZM1333.24 66.1818C1332.45 66.1818 1331.76 65.9943 1331.17 65.6193C1330.58 65.2443 1330.11 64.7197 1329.78 64.0455C1329.45 63.3712 1329.29 62.5833 1329.29 61.6818C1329.29 60.7727 1329.45 59.9792 1329.78 59.3011C1330.11 58.6231 1330.58 58.0966 1331.17 57.7216C1331.76 57.3466 1332.45 57.1591 1333.24 57.1591C1334.03 57.1591 1334.72 57.3466 1335.31 57.7216C1335.9 58.0966 1336.37 58.6231 1336.7 59.3011C1337.03 59.9792 1337.2 60.7727 1337.2 61.6818C1337.2 62.5833 1337.03 63.3712 1336.7 64.0455C1336.37 64.7197 1335.9 65.2443 1335.31 65.6193C1334.72 65.9943 1334.03 66.1818 1333.24 66.1818ZM1333.24 64.9773C1333.84 64.9773 1334.33 64.8239 1334.72 64.517C1335.11 64.2102 1335.39 63.8068 1335.58 63.3068C1335.76 62.8068 1335.86 62.2652 1335.86 61.6818C1335.86 61.0985 1335.76 60.5549 1335.58 60.0511C1335.39 59.5473 1335.11 59.1402 1334.72 58.8295C1334.33 58.5189 1333.84 58.3636 1333.24 58.3636C1332.64 58.3636 1332.15 58.5189 1331.76 58.8295C1331.38 59.1402 1331.09 59.5473 1330.91 60.0511C1330.72 60.5549 1330.63 61.0985 1330.63 61.6818C1330.63 62.2652 1330.72 62.8068 1330.91 63.3068C1331.09 63.8068 1331.38 64.2102 1331.76 64.517C1332.15 64.8239 1332.64 64.9773 1333.24 64.9773ZM1343.72 66V64.9773L1347.56 60.7727C1348.01 60.2803 1348.38 59.8523 1348.67 59.4886C1348.97 59.1212 1349.18 58.7765 1349.32 58.4545C1349.47 58.1288 1349.54 57.7879 1349.54 57.4318C1349.54 57.0227 1349.44 56.6686 1349.24 56.3693C1349.05 56.0701 1348.78 55.839 1348.45 55.6761C1348.11 55.5133 1347.73 55.4318 1347.31 55.4318C1346.86 55.4318 1346.47 55.5246 1346.14 55.7102C1345.81 55.892 1345.56 56.1477 1345.37 56.4773C1345.2 56.8068 1345.11 57.1932 1345.11 57.6364H1343.77C1343.77 56.9545 1343.92 56.3561 1344.24 55.8409C1344.55 55.3258 1344.98 54.9242 1345.52 54.6364C1346.07 54.3485 1346.68 54.2045 1347.36 54.2045C1348.04 54.2045 1348.64 54.3485 1349.17 54.6364C1349.7 54.9242 1350.11 55.3125 1350.41 55.8011C1350.71 56.2898 1350.86 56.8333 1350.86 57.4318C1350.86 57.8598 1350.78 58.2784 1350.62 58.6875C1350.47 59.0928 1350.21 59.5455 1349.83 60.0455C1349.45 60.5417 1348.93 61.1477 1348.27 61.8636L1345.65 64.6591V64.75H1351.06V66H1343.72ZM1357.5 54.3636V66H1356.09V55.8409H1356.02L1353.18 57.7273V56.2955L1356.09 54.3636H1357.5ZM1361.85 64.5114C1361.56 64.5114 1361.32 64.411 1361.12 64.2102C1360.92 64.0095 1360.82 63.7689 1360.82 63.4886C1360.82 63.2083 1360.92 62.9678 1361.12 62.767C1361.32 62.5663 1361.56 62.4659 1361.85 62.4659C1362.13 62.4659 1362.37 62.5663 1362.57 62.767C1362.77 62.9678 1362.87 63.2083 1362.87 63.4886C1362.87 63.6742 1362.82 63.8447 1362.73 64C1362.63 64.1553 1362.51 64.2803 1362.36 64.375C1362.21 64.4659 1362.03 64.5114 1361.85 64.5114ZM1361.85 58.625C1361.56 58.625 1361.32 58.5246 1361.12 58.3239C1360.92 58.1231 1360.82 57.8826 1360.82 57.6023C1360.82 57.322 1360.92 57.0814 1361.12 56.8807C1361.32 56.6799 1361.56 56.5795 1361.85 56.5795C1362.13 56.5795 1362.37 56.6799 1362.57 56.8807C1362.77 57.0814 1362.87 57.322 1362.87 57.6023C1362.87 57.7879 1362.82 57.9583 1362.73 58.1136C1362.63 58.2689 1362.51 58.3939 1362.36 58.4886C1362.21 58.5795 1362.03 58.625 1361.85 58.625ZM1369.18 66.1591C1368.43 66.1591 1367.76 66.0303 1367.18 65.7727C1366.59 65.5152 1366.13 65.1572 1365.79 64.6989C1365.44 64.2367 1365.26 63.7008 1365.23 63.0909H1366.66C1366.69 63.4659 1366.82 63.7898 1367.05 64.0625C1367.27 64.3314 1367.57 64.5398 1367.94 64.6875C1368.31 64.8352 1368.71 64.9091 1369.16 64.9091C1369.66 64.9091 1370.1 64.822 1370.49 64.6477C1370.88 64.4735 1371.18 64.2311 1371.4 63.9205C1371.62 63.6098 1371.73 63.25 1371.73 62.8409C1371.73 62.4129 1371.62 62.036 1371.41 61.7102C1371.2 61.3807 1370.89 61.1231 1370.48 60.9375C1370.07 60.7519 1369.57 60.6591 1368.98 60.6591H1368.05V59.4091H1368.98C1369.44 59.4091 1369.85 59.3258 1370.19 59.1591C1370.55 58.9924 1370.82 58.7576 1371.02 58.4545C1371.22 58.1515 1371.32 57.7955 1371.32 57.3864C1371.32 56.9924 1371.23 56.6496 1371.06 56.358C1370.88 56.0663 1370.64 55.839 1370.32 55.6761C1370.01 55.5133 1369.63 55.4318 1369.21 55.4318C1368.8 55.4318 1368.43 55.5057 1368.07 55.6534C1367.72 55.7973 1367.43 56.0076 1367.21 56.2841C1366.98 56.5568 1366.86 56.8864 1366.84 57.2727H1365.48C1365.5 56.6629 1365.69 56.1288 1366.03 55.6705C1366.37 55.2083 1366.83 54.8485 1367.38 54.5909C1367.94 54.3333 1368.56 54.2045 1369.23 54.2045C1369.95 54.2045 1370.57 54.3504 1371.08 54.642C1371.6 54.9299 1371.99 55.3106 1372.27 55.7841C1372.54 56.2576 1372.68 56.7689 1372.68 57.3182C1372.68 57.9735 1372.51 58.5322 1372.17 58.9943C1371.83 59.4564 1371.36 59.7765 1370.77 59.9545V60.0455C1371.51 60.1667 1372.08 60.4792 1372.5 60.983C1372.91 61.483 1373.12 62.1023 1373.12 62.8409C1373.12 63.4735 1372.94 64.0417 1372.6 64.5455C1372.26 65.0455 1371.79 65.4394 1371.2 65.7273C1370.61 66.0152 1369.94 66.1591 1369.18 66.1591ZM1379.23 66.1591C1378.38 66.1591 1377.65 65.9261 1377.05 65.4602C1376.44 64.9905 1375.98 64.3106 1375.67 63.4205C1375.35 62.5265 1375.19 61.447 1375.19 60.1818C1375.19 58.9242 1375.35 57.8504 1375.67 56.9602C1375.99 56.0663 1376.45 55.3845 1377.05 54.9148C1377.66 54.4413 1378.39 54.2045 1379.23 54.2045C1380.08 54.2045 1380.81 54.4413 1381.41 54.9148C1382.02 55.3845 1382.48 56.0663 1382.8 56.9602C1383.12 57.8504 1383.28 58.9242 1383.28 60.1818C1383.28 61.447 1383.12 62.5265 1382.8 63.4205C1382.48 64.3106 1382.02 64.9905 1381.42 65.4602C1380.82 65.9261 1380.09 66.1591 1379.23 66.1591ZM1379.23 64.9091C1380.08 64.9091 1380.74 64.5 1381.21 63.6818C1381.68 62.8636 1381.92 61.697 1381.92 60.1818C1381.92 59.1742 1381.81 58.3163 1381.59 57.608C1381.38 56.8996 1381.07 56.3598 1380.67 55.9886C1380.27 55.6174 1379.79 55.4318 1379.23 55.4318C1378.39 55.4318 1377.74 55.8466 1377.26 56.6761C1376.79 57.5019 1376.55 58.6705 1376.55 60.1818C1376.55 61.1894 1376.66 62.0455 1376.87 62.75C1377.08 63.4545 1377.39 63.9905 1377.79 64.358C1378.19 64.7254 1378.67 64.9091 1379.23 64.9091Z" fill="#333333"/>
<path d="M1606.25 66L1602.25 60.6591H1600.82V66H1599.41V54.3636H1600.82V59.4091H1601.43L1606.09 54.3636H1607.77L1603.07 59.4773L1607.93 66H1606.25ZM1612.48 66.1818C1611.69 66.1818 1611 65.9943 1610.4 65.6193C1609.81 65.2443 1609.35 64.7197 1609.02 64.0455C1608.69 63.3712 1608.52 62.5833 1608.52 61.6818C1608.52 60.7727 1608.69 59.9792 1609.02 59.3011C1609.35 58.6231 1609.81 58.0966 1610.4 57.7216C1611 57.3466 1611.69 57.1591 1612.48 57.1591C1613.26 57.1591 1613.95 57.3466 1614.54 57.7216C1615.14 58.0966 1615.6 58.6231 1615.93 59.3011C1616.26 59.9792 1616.43 60.7727 1616.43 61.6818C1616.43 62.5833 1616.26 63.3712 1615.93 64.0455C1615.6 64.7197 1615.14 65.2443 1614.54 65.6193C1613.95 65.9943 1613.26 66.1818 1612.48 66.1818ZM1612.48 64.9773C1613.07 64.9773 1613.57 64.8239 1613.95 64.517C1614.34 64.2102 1614.63 63.8068 1614.81 63.3068C1615 62.8068 1615.09 62.2652 1615.09 61.6818C1615.09 61.0985 1615 60.5549 1614.81 60.0511C1614.63 59.5473 1614.34 59.1402 1613.95 58.8295C1613.57 58.5189 1613.07 58.3636 1612.48 58.3636C1611.88 58.3636 1611.38 58.5189 1611 58.8295C1610.61 59.1402 1610.33 59.5473 1610.14 60.0511C1609.96 60.5549 1609.86 61.0985 1609.86 61.6818C1609.86 62.2652 1609.96 62.8068 1610.14 63.3068C1610.33 63.8068 1610.61 64.2102 1611 64.517C1611.38 64.8239 1611.88 64.9773 1612.48 64.9773ZM1618.48 69.2727V57.2727H1619.77V58.6591H1619.93C1620.03 58.5076 1620.17 58.3144 1620.34 58.0795C1620.52 57.8409 1620.77 57.6288 1621.1 57.4432C1621.44 57.2538 1621.89 57.1591 1622.45 57.1591C1623.19 57.1591 1623.84 57.3428 1624.4 57.7102C1624.96 58.0777 1625.4 58.5985 1625.71 59.2727C1626.02 59.947 1626.18 60.7424 1626.18 61.6591C1626.18 62.5833 1626.02 63.3845 1625.71 64.0625C1625.4 64.7367 1624.96 65.2595 1624.4 65.6307C1623.85 65.9981 1623.2 66.1818 1622.48 66.1818C1621.92 66.1818 1621.47 66.089 1621.13 65.9034C1620.79 65.714 1620.53 65.5 1620.35 65.2614C1620.17 65.0189 1620.03 64.8182 1619.93 64.6591H1619.82V69.2727H1618.48ZM1619.8 61.6364C1619.8 62.2955 1619.89 62.8769 1620.09 63.3807C1620.28 63.8807 1620.56 64.2727 1620.93 64.5568C1621.3 64.8371 1621.76 64.9773 1622.3 64.9773C1622.86 64.9773 1623.32 64.8295 1623.7 64.5341C1624.08 64.2348 1624.36 63.8333 1624.55 63.3295C1624.74 62.822 1624.84 62.2576 1624.84 61.6364C1624.84 61.0227 1624.75 60.4697 1624.56 59.9773C1624.37 59.4811 1624.09 59.089 1623.71 58.8011C1623.34 58.5095 1622.86 58.3636 1622.3 58.3636C1621.75 58.3636 1621.29 58.5019 1620.92 58.7784C1620.55 59.0511 1620.27 59.4337 1620.08 59.9261C1619.89 60.4148 1619.8 60.9848 1619.8 61.6364ZM1627.68 63.7727H1629.11C1629.14 64.1667 1629.32 64.4659 1629.65 64.6705C1629.98 64.875 1630.41 64.9773 1630.93 64.9773C1631.47 64.9773 1631.93 64.8674 1632.31 64.6477C1632.7 64.4242 1632.89 64.0644 1632.89 63.5682C1632.89 63.2765 1632.81 63.0227 1632.67 62.8068C1632.53 62.5871 1632.32 62.4167 1632.06 62.2955C1631.8 62.1742 1631.49 62.1136 1631.14 62.1136H1629.64V60.9091H1631.14C1631.67 60.9091 1632.06 60.7879 1632.32 60.5455C1632.58 60.303 1632.7 60 1632.7 59.6364C1632.7 59.2462 1632.57 58.9337 1632.29 58.6989C1632.01 58.4602 1631.62 58.3409 1631.11 58.3409C1630.6 58.3409 1630.18 58.4564 1629.84 58.6875C1629.49 58.9148 1629.31 59.2083 1629.3 59.5682H1627.89C1627.9 59.0985 1628.05 58.6837 1628.32 58.3239C1628.59 57.9602 1628.96 57.6761 1629.43 57.4716C1629.9 57.2633 1630.44 57.1591 1631.05 57.1591C1631.66 57.1591 1632.19 57.267 1632.64 57.483C1633.1 57.6951 1633.45 57.9848 1633.69 58.3523C1633.94 58.7159 1634.07 59.1288 1634.07 59.5909C1634.07 60.0833 1633.93 60.4811 1633.65 60.7841C1633.38 61.0871 1633.03 61.303 1632.61 61.4318V61.5227C1632.94 61.5455 1633.23 61.6515 1633.47 61.8409C1633.72 62.0265 1633.91 62.2708 1634.05 62.5739C1634.18 62.8731 1634.25 63.2045 1634.25 63.5682C1634.25 64.0985 1634.11 64.5606 1633.82 64.9545C1633.54 65.3447 1633.15 65.6477 1632.65 65.8636C1632.16 66.0758 1631.59 66.1818 1630.95 66.1818C1630.34 66.1818 1629.78 66.0814 1629.3 65.8807C1628.81 65.6761 1628.42 65.3939 1628.13 65.0341C1627.85 64.6705 1627.7 64.25 1627.68 63.7727ZM1637.47 64.0227L1641.68 57.2727H1643.22V66H1641.88V59.25L1637.7 66H1636.13V57.2727H1637.47V64.0227ZM1651.52 61.0227V62.2727H1646.7V61.0227H1651.52ZM1647.02 57.2727V66H1645.68V57.2727H1647.02ZM1652.54 57.2727V66H1651.2V57.2727H1652.54ZM1657.56 66.2045C1657.01 66.2045 1656.51 66.1004 1656.06 65.892C1655.6 65.6799 1655.25 65.375 1654.98 64.9773C1654.72 64.5758 1654.58 64.0909 1654.58 63.5227C1654.58 63.0227 1654.68 62.6174 1654.88 62.3068C1655.08 61.9924 1655.34 61.7462 1655.67 61.5682C1656 61.3902 1656.36 61.2576 1656.76 61.1705C1657.16 61.0795 1657.56 61.0076 1657.97 60.9545C1658.5 60.8864 1658.93 60.8352 1659.26 60.8011C1659.59 60.7633 1659.84 60.7008 1659.99 60.6136C1660.14 60.5265 1660.22 60.375 1660.22 60.1591V60.1136C1660.22 59.553 1660.07 59.1174 1659.76 58.8068C1659.46 58.4962 1659 58.3409 1658.38 58.3409C1657.74 58.3409 1657.24 58.4811 1656.87 58.7614C1656.51 59.0417 1656.25 59.3409 1656.11 59.6591L1654.83 59.2045C1655.06 58.6742 1655.36 58.2614 1655.74 57.9659C1656.13 57.6667 1656.54 57.4583 1656.99 57.3409C1657.45 57.2197 1657.89 57.1591 1658.33 57.1591C1658.61 57.1591 1658.94 57.1932 1659.3 57.2614C1659.67 57.3258 1660.02 57.4602 1660.36 57.6648C1660.71 57.8693 1660.99 58.178 1661.22 58.5909C1661.45 59.0038 1661.56 59.5568 1661.56 60.25V66H1660.22V64.8182H1660.15C1660.06 65.0076 1659.91 65.2102 1659.7 65.4261C1659.49 65.642 1659.2 65.8258 1658.85 65.9773C1658.5 66.1288 1658.07 66.2045 1657.56 66.2045ZM1657.77 65C1658.3 65 1658.74 64.8958 1659.11 64.6875C1659.47 64.4792 1659.75 64.2102 1659.94 63.8807C1660.13 63.5511 1660.22 63.2045 1660.22 62.8409V61.6136C1660.16 61.6818 1660.04 61.7443 1659.85 61.8011C1659.66 61.8542 1659.44 61.9015 1659.19 61.9432C1658.94 61.9811 1658.7 62.0152 1658.46 62.0455C1658.23 62.072 1658.05 62.0947 1657.9 62.1136C1657.55 62.1591 1657.23 62.233 1656.92 62.3352C1656.63 62.4337 1656.38 62.5833 1656.2 62.7841C1656.02 62.9811 1655.92 63.25 1655.92 63.5909C1655.92 64.0568 1656.1 64.4091 1656.44 64.6477C1656.79 64.8826 1657.23 65 1657.77 65Z" fill="#333333"/>
<circle cx="1666.5" cy="49.5" r="7.5" fill="white"/>
<path d="M1666.53 53.0994C1666.06 53.0994 1665.64 53.0189 1665.27 52.858C1664.91 52.697 1664.62 52.4732 1664.4 52.1868C1664.19 51.898 1664.07 51.563 1664.06 51.1818H1664.95C1664.97 51.4162 1665.05 51.6186 1665.19 51.7891C1665.33 51.9571 1665.52 52.0874 1665.75 52.1797C1665.98 52.272 1666.23 52.3182 1666.51 52.3182C1666.82 52.3182 1667.1 52.2637 1667.34 52.1548C1667.58 52.0459 1667.77 51.8944 1667.91 51.7003C1668.05 51.5062 1668.12 51.2812 1668.12 51.0256C1668.12 50.758 1668.05 50.5225 1667.92 50.3189C1667.79 50.1129 1667.59 49.9519 1667.34 49.8359C1667.08 49.7199 1666.77 49.6619 1666.4 49.6619H1665.82V48.8807H1666.4C1666.69 48.8807 1666.94 48.8286 1667.16 48.7244C1667.38 48.6203 1667.55 48.4735 1667.67 48.2841C1667.8 48.0947 1667.86 47.8722 1667.86 47.6165C1667.86 47.3703 1667.81 47.156 1667.7 46.9737C1667.59 46.7914 1667.44 46.6494 1667.24 46.5476C1667.04 46.4458 1666.81 46.3949 1666.54 46.3949C1666.29 46.3949 1666.05 46.4411 1665.83 46.5334C1665.61 46.6233 1665.43 46.7547 1665.29 46.9276C1665.15 47.098 1665.08 47.304 1665.06 47.5455H1664.21C1664.23 47.1643 1664.34 46.8305 1664.56 46.544C1664.77 46.2552 1665.05 46.0303 1665.4 45.8693C1665.75 45.7083 1666.14 45.6278 1666.56 45.6278C1667 45.6278 1667.39 45.719 1667.71 45.9013C1668.03 46.0812 1668.28 46.3191 1668.45 46.6151C1668.63 46.911 1668.71 47.2306 1668.71 47.5739C1668.71 47.9834 1668.61 48.3326 1668.39 48.6214C1668.18 48.9103 1667.89 49.1103 1667.52 49.2216V49.2784C1667.98 49.3542 1668.34 49.5495 1668.6 49.8643C1668.85 50.1768 1668.98 50.5639 1668.98 51.0256C1668.98 51.4209 1668.88 51.776 1668.66 52.0909C1668.45 52.4034 1668.16 52.6496 1667.79 52.8295C1667.42 53.0095 1667 53.0994 1666.53 53.0994Z" fill="#333333"/>
<path d="M920 20L960.5 26.5L1000 20L991.5 36.5L987.5 60L993 82L1000 100L960.5 95L920 100L933 60L929.5 35L920 20Z" fill="white"/>
<path fill-rule="evenodd" clip-rule="evenodd" d="M953.918 90.8751C952.542 90.8751 951.995 90.8522 950.735 90.3639C950.12 90.1253 949.383 89.5788 948.997 89.1111C948.252 88.2075 947.836 87.2063 947.667 86.005C947.465 84.5754 947.6 84.3731 947.593 83.0872C947.591 82.7777 947.636 82.6406 947.634 82.3407L947.752 79.3096C947.774 79.049 947.74 78.7497 947.754 78.4856C947.807 77.5351 947.88 76.3297 947.875 75.4173C947.873 75.1175 947.917 74.9803 947.916 74.6708C947.914 74.3901 947.914 74.1352 947.945 73.9126C947.98 73.6605 947.951 73.3913 947.954 73.1351C947.957 72.9451 947.981 72.9297 947.994 72.7806L948.053 70.8326C948.128 70.3419 948.11 70.0096 948.246 69.4471C948.449 68.6069 948.661 67.9404 949.221 67.2139C950.224 65.9147 951.696 65.2703 953.918 65.2703C954.83 65.2703 955.642 65.4041 956.381 65.6969C957.314 66.0665 958.116 66.6872 958.629 67.5529C959.124 68.3867 959.482 69.7116 959.478 70.7365L959.517 72.4287C959.517 72.822 959.517 73.2154 959.517 73.6086C959.517 74.0307 959.558 74.2983 959.557 74.7099C959.554 76.9831 959.638 79.2446 959.638 81.5143C959.638 82.5107 959.77 84.0671 959.672 84.9303C959.459 86.8102 959.11 88.4689 957.486 89.7183C956.562 90.4294 955.193 90.8751 953.918 90.8751ZM1000 20V20.0012L996.783 27.0062C996.7 27.2052 996.63 27.3611 996.548 27.5628C995.083 31.1613 994.001 34.0017 992.844 37.9094C991.621 42.0443 991.01 45.128 990.401 49.5653L990.091 52.7629C990.019 54.1313 989.97 55.4599 989.97 56.8928L990.053 59.9192C990.176 61.3699 990.262 62.7805 990.471 64.2312C991.108 68.659 991.774 71.4616 993 75.7241C993.474 77.371 994.122 79.4713 994.678 81.0865C994.749 81.2906 994.797 81.4751 994.87 81.6864C995.01 82.0948 995.122 82.4662 995.263 82.876C996.611 86.8255 997.859 90.8082 998.905 94.8555C999.017 95.2883 999.976 99.319 1000 99.9761V99.9999L993.675 99.4114C992.5 99.334 991.084 99.1305 989.931 99.0546L987.41 98.803C986.581 98.6907 985.717 98.6562 984.923 98.5564C983.354 98.3589 981.485 98.2633 979.923 98.0501L978.65 97.9168C978.23 97.8893 977.83 97.8338 977.406 97.7938C976.606 97.7184 975.713 97.6304 974.933 97.5336C974.077 97.4276 973.273 97.382 972.419 97.2745L967.441 96.747C966.598 96.6425 965.808 96.5937 964.967 96.4879C964.167 96.3873 963.291 96.298 962.461 96.2205C962.075 96.1845 961.638 96.1445 961.226 96.0893C961.004 96.0597 960.827 96.0443 960.608 96.0239C959.539 95.924 960.404 95.9381 959.355 96.0264L956.266 96.3537C955.052 96.5043 953.689 96.5967 952.525 96.7523L943.8 97.6728C943.367 97.7169 942.969 97.7614 942.557 97.7964L938.805 98.1842C938.373 98.2287 937.973 98.2727 937.562 98.3077C937.146 98.3429 936.74 98.3905 936.318 98.4304L932.556 98.8084C932.145 98.8601 931.704 98.903 931.316 98.9346C929.644 99.0713 927.96 99.2767 926.288 99.4135L920 100L920.238 98.6595C920.751 96.1633 921.657 92.3954 922.462 89.9361C922.828 88.8194 923.204 87.4783 923.59 86.3569L925.141 81.6567C925.275 81.2631 925.403 80.881 925.524 80.4966C926.245 78.1965 927.09 75.6124 927.694 73.2547C927.905 72.431 928.13 71.6161 928.321 70.7602C928.702 69.0575 929.083 67.3264 929.339 65.5388C929.469 64.6239 929.594 63.7158 929.701 62.7854C929.908 60.9904 930.03 58.7252 930.03 56.8534L929.949 53.8251C929.942 53.6979 929.955 53.5585 929.951 53.4303L929.869 52.3304C929.868 51.8616 929.656 50.0459 929.591 49.4952C928.675 41.7655 926.327 34.5313 923.43 27.5063C923.352 27.3158 923.28 27.1462 923.194 26.9506L922.242 24.7723C922.155 24.59 922.086 24.438 922.008 24.2533L920 20L929.811 21.3149C931.475 21.5397 933.089 21.6882 934.76 21.9106C935.601 22.0225 936.45 22.0914 937.253 22.1909C938.103 22.2965 938.907 22.3474 939.756 22.4611C940.618 22.5764 941.437 22.6179 942.305 22.7253C943.096 22.8236 944.002 22.9086 944.818 22.9855C945.741 23.0726 947.144 23.2462 947.998 23.3024L949.872 23.4778C950.925 23.6214 952.563 23.7042 953.687 23.8432C955.156 24.0251 957.224 24.1648 958.758 24.3202C959.811 24.4268 960.207 24.4489 961.278 24.3155C961.672 24.2665 962.13 24.2504 962.561 24.1917C963.269 24.0951 964.451 24.0455 965.099 23.9559C965.945 23.8389 966.783 23.8295 967.631 23.7138C968.526 23.5917 969.892 23.512 970.829 23.4152C970.992 23.3984 971.275 23.3588 971.444 23.3461L975.22 22.9821C976.787 22.81 978.766 22.6589 980.245 22.4611C981.807 22.252 983.687 22.1209 985.275 21.9051C986.108 21.792 986.938 21.7012 987.755 21.6126C990.886 21.2727 994.454 20.7846 997.566 20.3369L1000 20ZM961.652 70.8554C961.652 69.3945 961.861 68.0514 962.792 66.9345C962.905 66.8001 962.983 66.6931 963.111 66.5776C963.192 66.5056 963.211 66.5037 963.291 66.4382C964.4 65.528 965.567 65.2703 967.13 65.2703C968.181 65.2703 969.205 65.4695 969.924 65.8075C971.546 66.5703 972.4 67.8066 972.834 69.4944C972.957 69.9713 973.129 71.1799 973.133 71.6807L973.296 73.9602C973.335 74.4572 973.389 74.9732 973.415 75.4962C973.438 75.9826 973.53 76.5306 973.535 77.0312C973.539 77.5167 973.654 78.0399 973.656 78.5644L974.058 83.9142C974.064 84.173 974.099 84.2121 974.099 84.7C974.099 86.0649 973.961 87.3784 973.271 88.4931C973.105 88.7611 972.904 89.0713 972.68 89.2928C972.559 89.4125 972.462 89.5097 972.338 89.6271C972.221 89.7371 972.087 89.8228 971.953 89.9204C971.154 90.504 969.806 90.8751 968.701 90.8751C967.349 90.8751 966.475 90.8067 965.29 90.2723C963.326 89.3859 962.291 87.3222 962.055 85.2508C962.03 85.0298 961.986 84.7216 961.974 84.5036C961.967 84.377 961.983 84.2385 961.972 84.1122C961.91 83.3752 961.964 83.0791 961.934 82.5367C961.924 82.3617 961.894 82.3479 961.892 82.1451L961.895 80.923C961.889 80.7289 961.858 80.7264 961.852 80.5322C961.844 80.2633 961.853 79.9761 961.853 79.705C961.853 79.2241 961.82 79.1959 961.812 78.9196L961.772 77.3059C961.713 76.234 961.814 75.1246 961.698 74.1142C961.64 73.61 961.73 72.9723 961.663 72.4966C961.605 72.0857 961.652 71.3066 961.652 70.8554ZM937.08 75.6146H941.47L941.67 72.7806C941.679 72.6666 941.665 72.5449 941.674 72.4308L941.804 70.5121C941.869 70.0424 941.897 68.4846 941.977 67.9677C942.039 67.5676 941.996 67.1099 942.058 66.709C942.132 66.2284 942.026 65.5063 942.236 65.5063H945.861C945.861 66.2529 945.694 67.8825 945.7 68.613L945.661 69.7554C945.655 69.9496 945.624 69.9521 945.618 70.1462C945.602 70.6844 945.602 71.2324 945.545 71.7264C945.489 72.2126 945.555 72.8039 945.482 73.2773L945.339 76.4418C945.33 76.7311 945.299 76.7193 945.299 77.2284C945.297 78.1952 945.095 80.1451 945.094 81.1196C945.094 81.2464 945.103 81.3897 945.096 81.5144L945.015 82.6939C944.985 83.2375 944.998 83.777 944.941 84.2732C944.884 84.7631 944.951 85.3479 944.883 85.83C944.815 86.3195 944.844 86.8694 944.814 87.4142C944.805 87.5869 944.778 87.5787 944.772 87.7666C944.768 87.909 944.779 88.0595 944.775 88.2019C944.769 88.3899 944.743 88.3815 944.733 88.5543L944.653 90.5605H940.504C940.504 90.0049 940.576 89.3815 940.622 88.8278C940.648 88.5161 940.615 88.1874 940.688 87.712L940.865 84.8561C940.866 84.6823 940.887 84.6583 940.901 84.5371L941.148 80.6096C941.144 80.1544 941.229 79.7203 941.229 79.1544H936.757C936.757 79.6231 936.674 80.1306 936.639 80.5729L936.277 84.86C936.128 86.7743 935.952 88.6719 935.791 90.5605H931.722L931.882 89.0251C931.982 87.5795 932.237 85.7716 932.363 84.3034L932.686 81.1572C932.77 80.094 932.893 79.0354 933.004 78.0071C933.119 76.9449 933.215 75.8917 933.327 74.8606C933.441 73.8009 933.512 72.7241 933.644 71.7095C933.772 70.723 933.843 69.5165 933.966 68.5629C934.036 68.0283 934.063 67.4864 934.128 66.9901L934.241 65.8023C934.262 65.6363 934.222 65.5063 934.381 65.5063H937.926C937.926 65.6723 937.9 65.9375 937.879 66.1297L937.603 69.2823C937.591 69.665 937.541 70.2019 937.494 70.5516C937.47 70.7277 937.447 71.0181 937.442 71.1702L937.171 74.3274C937.148 74.4983 937.123 74.8001 937.12 74.9455C937.113 75.2051 937.08 75.3494 937.08 75.6146ZM983.364 75.9685C983.364 76.1087 984.336 77.9043 984.506 78.2362L984.976 79.154C985.058 79.3141 985.114 79.4704 985.203 79.6403C985.497 80.203 986.163 81.4209 986.361 81.8915L988.48 85.9975C989.25 87.4288 990.031 89.1117 990.816 90.5605H986.587C986.573 90.4004 986.086 89.4573 985.975 89.2304C985.92 89.1186 985.875 89.0597 985.815 88.9142L984.048 85.2512C983.855 84.8275 983.598 84.376 983.405 83.9523L981.471 79.941C981.351 80.0266 981.284 80.2789 981.218 80.441L980.525 82.1254C980.396 82.4304 980.71 84.521 980.742 84.9001C980.817 85.7699 981.31 89.929 981.31 90.5605H977.241C977.241 90.1153 976.978 87.4443 976.916 86.6696L976.769 85.1218C976.731 84.8415 976.742 84.5948 976.711 84.3128L976.435 81.1997C976.428 80.972 976.374 80.6669 976.358 80.4498C976.295 79.6411 976.185 78.0415 976.084 77.2949L975.469 70.2262C975.454 69.6387 975.282 68.4907 975.267 67.9056C975.253 67.3573 975.066 66.0574 975.066 65.5063H978.611C978.763 65.5063 978.748 65.7339 978.77 66.0583C978.785 66.2715 978.804 66.485 978.835 66.703C978.868 66.934 978.877 67.1234 978.896 67.3515C978.912 67.5433 978.958 67.7865 978.972 67.9856C979.002 68.4254 979.06 68.832 979.097 69.2787C979.114 69.4707 979.16 69.7138 979.173 69.9129L979.779 75.7325C979.92 75.6319 979.977 75.2858 980.035 75.1176L981.206 71.9342C981.381 71.4904 981.506 71.0692 981.684 70.631C981.773 70.4122 981.829 70.1977 981.914 69.9902C982.232 69.2075 983.398 65.8148 983.565 65.5063H987.191C987.178 65.6599 987.139 65.7093 987.087 65.8378C987.037 65.9624 987.022 66.0332 986.972 66.1584L986.249 68.1268C985.948 69.0175 985.593 69.8482 985.293 70.7326L983.364 75.9685ZM987.11 36.2045V37.2272C987.11 38.2652 986.242 44.5188 986.115 45.4593C985.656 48.8518 985.268 52.3268 984.791 55.6905C984.555 57.3607 984.419 58.727 983.619 60.2884C982.822 61.8452 981.66 62.9735 979.992 63.6698C977.942 64.526 974.391 64.5294 972.366 63.2257C972.018 63.0013 971.786 62.793 971.491 62.5075C970.914 61.9492 970.579 61.3142 970.284 60.5785C969.769 59.2965 969.77 57.9704 969.787 56.6159L969.864 55.5104C969.885 55.324 969.856 55.1153 969.872 54.9283C969.933 54.2051 969.966 53.4475 969.989 52.683L970.069 51.5811C970.085 51.3939 970.055 51.1854 970.077 50.9989L970.433 44.2272C970.431 43.9751 970.472 43.9066 970.475 43.679C970.484 42.9272 970.532 42.149 970.592 41.4335L970.833 37.4991C970.929 36.6834 971.129 35.7789 971.355 35.0589C971.506 34.5773 971.639 34.222 971.857 33.7796C971.93 33.6311 971.974 33.5087 972.045 33.3725C972.728 32.0435 973.646 31.0464 974.904 30.2256C975.148 30.0667 975.439 29.9264 975.71 29.7935C978.213 28.5676 982.445 28.6349 984.681 30.4736L985.368 31.1403C985.45 31.2244 985.512 31.3183 985.58 31.4061C986.317 32.3648 986.735 33.4004 986.938 34.6031C987.02 35.0925 987.11 35.5825 987.11 36.2045ZM951.179 29.4789H960.081C961.252 29.4789 962.622 29.7416 963.678 30.1749C963.799 30.2245 963.883 30.273 964.002 30.331C964.258 30.4565 964.386 30.5247 964.617 30.6746C966.028 31.5932 966.875 33.0254 967.248 34.6734L967.471 35.8719C967.554 36.4166 967.573 37.3117 967.573 37.8957C967.573 38.5178 967.532 39.0433 967.533 39.6264C967.534 39.9595 967.491 40.1572 967.492 40.4514C967.493 40.7802 967.49 41.0502 967.458 41.3234C967.442 41.4645 967.456 41.6096 967.454 41.7518C967.452 41.9548 967.421 41.9689 967.413 42.1438C967.396 42.4867 967.364 42.6569 967.328 42.9662C967.128 44.7201 966.485 46.407 965.248 47.621C965 47.8641 964.176 48.4741 963.867 48.5546V48.6332C964.066 48.6494 964.488 48.9073 964.649 49.0103C964.779 49.0927 964.859 49.147 964.979 49.2394C966.163 50.1503 966.507 51.2173 966.805 52.6479C967.119 54.1571 966.964 54.9623 966.97 56.3431C966.971 56.6319 966.928 56.8061 966.929 57.1288C966.93 57.4413 966.902 57.6637 966.888 57.9153C966.874 58.1697 966.903 58.4477 966.889 58.7022C966.875 58.9539 966.848 59.1761 966.848 59.4887C966.849 59.8115 966.806 59.9855 966.807 60.2744C966.812 61.3628 966.733 62.4183 967.032 63.4391C967.08 63.6042 967.158 63.7837 967.17 63.9331H962.417C962.266 63.3005 962.101 63.1758 962.055 62.2813C962.024 61.708 961.967 60.8863 962.044 60.3432C962.097 59.9653 962.055 57.9764 962.055 57.3255C962.054 56.9401 962.096 56.7089 962.095 56.3423C962.09 54.9797 962.11 53.6575 961.639 52.7363C961.382 52.2324 961.132 51.9755 960.653 51.6929C959.789 51.183 958.16 51.3078 957.06 51.3078C957.06 53.4223 957.151 55.4981 957.14 57.6404C957.138 57.9498 957.183 58.087 957.181 58.3869C957.178 58.9027 957.149 60.457 957.198 60.77C957.261 61.1778 957.222 62.5636 957.22 63.1474C957.219 63.4352 957.261 63.6112 957.261 63.9331H952.548C952.548 63.75 952.552 63.5634 952.55 63.3809C952.547 63.1578 952.507 63.1089 952.506 62.8725C952.505 61.8248 952.383 60.6881 952.387 59.6459C952.389 59.0359 952.305 58.1268 952.307 57.4819C952.308 57.2408 952.271 57.1778 952.265 56.9727C952.259 56.7915 952.27 56.6015 952.268 56.4192C952.265 56.1961 952.225 56.1472 952.224 55.9109C952.224 55.7211 952.236 55.5061 952.226 55.3193C952.216 55.1308 952.184 55.0484 952.185 54.8088C952.191 53.7387 952.059 52.6408 952.065 51.5828L952.026 50.4805C952.025 50.2441 951.985 50.1952 951.982 49.972C951.98 49.7887 951.988 49.6017 951.986 49.4182C951.983 49.1911 951.942 49.1219 951.943 48.8701C951.946 48.1327 951.861 47.4278 951.863 46.706C951.865 45.7935 951.739 44.459 951.743 43.5192C951.744 43.2783 951.707 43.2151 951.701 43.0101C951.695 42.8158 951.709 42.6119 951.703 42.4175C951.697 42.2126 951.66 42.1494 951.661 41.9085L951.507 38.126C951.488 37.9673 951.5 37.7457 951.501 37.5806L951.419 35.9699C951.417 34.6337 951.252 32.9157 951.259 31.6418C951.261 31.2711 951.217 30.9888 951.219 30.5796C951.221 30.34 951.189 30.2576 951.178 30.0691C951.168 29.8844 951.179 29.6671 951.179 29.4789ZM931.722 29.4789H940.423C941.951 29.4789 943.801 29.9925 945.048 30.8234C945.188 30.9169 945.335 31.0216 945.464 31.1249C945.606 31.2382 945.741 31.346 945.871 31.4747C946.136 31.7359 946.373 31.9551 946.604 32.254C947.496 33.409 947.68 33.9656 948.123 35.1762C948.183 35.3391 948.247 35.5107 948.294 35.7167C948.426 36.2868 948.657 37.2908 948.716 37.8618C948.73 37.9977 948.725 38.0945 948.744 38.2274L948.922 41.3571C948.932 41.53 948.959 41.5215 948.964 41.7096C948.993 42.6776 949.084 43.5593 949.084 44.5428C949.084 45.0981 949.097 45.4426 949.054 45.9688C949.041 46.1271 949.022 46.2475 949.01 46.3586C948.927 47.1349 948.804 47.8676 948.509 48.5829C948.062 49.6656 947.559 50.4641 946.593 51.1565C945.64 51.839 944.342 52.1946 943.126 52.2944C942.472 52.3482 940.795 52.3381 939.977 52.3282C939.704 52.325 939.678 52.2866 939.682 52.4556C939.689 52.7178 939.745 53.0509 939.771 53.2814C939.927 54.6326 940.022 56.0597 940.193 57.393C940.257 57.8918 940.289 58.4587 940.366 58.9941L940.705 62.2812C940.739 62.8142 940.866 63.3857 940.866 63.9331H936.193L934.519 51.0547C934.117 48.221 933.786 45.2698 933.402 42.4308C933.21 41.0117 933.023 39.5565 932.843 38.0994C932.583 35.9939 932.249 33.763 932.001 31.6454C931.96 31.2937 931.913 30.9364 931.86 30.5631L931.722 29.4789Z" fill="#222222"/>
<path fill-rule="evenodd" clip-rule="evenodd" d="M974.623 57.6795C974.623 58.2746 974.776 58.8901 975.036 59.2427C975.325 59.6348 975.728 59.8708 976.273 60.0017C977.266 60.2402 978.56 59.8952 979.143 58.9852C979.759 58.0221 979.696 57.114 979.871 55.7634C980.085 54.1158 980.246 52.0779 980.431 50.3705C980.491 49.8093 980.584 49.1658 980.624 48.5926C980.7 47.4925 980.892 46.1482 980.991 44.9789C981.039 44.4122 981.137 43.7749 981.186 43.2022C981.213 42.8814 981.242 42.6191 981.273 42.3046C981.3 42.0314 981.325 41.7118 981.367 41.4131L981.553 39.6278C981.628 38.5423 981.913 37.1986 981.517 36.1205C981.397 35.7958 981.268 35.5916 981.038 35.3686C979.806 34.173 977.662 34.6358 976.861 35.7942C975.939 37.1288 976.085 39.2174 975.906 40.8398C975.884 41.0418 975.836 41.4184 975.831 41.6315C975.816 42.2526 975.717 42.7758 975.711 43.2446C975.703 43.7715 975.597 44.3349 975.59 44.8576L975.399 47.2282C975.365 47.4805 975.355 47.7922 975.349 48.0441L974.623 57.6795Z" fill="#222222"/>
<path fill-rule="evenodd" clip-rule="evenodd" d="M951.541 84.6608C951.541 87.5105 954.361 87.3007 955.173 86.319C955.502 85.9215 955.694 85.2951 955.69 84.5825C955.682 83.0668 955.73 81.6652 955.73 80.1377V70.5802C955.73 68.2616 953.577 68.2604 952.75 68.7326C951.863 69.2394 951.777 70.2526 951.782 71.2092C951.784 71.5895 951.782 71.9699 951.783 72.3502C951.784 72.7524 951.742 73.0283 951.742 73.4514C951.743 75.6548 951.622 77.9826 951.622 80.1771C951.622 80.9298 951.58 81.628 951.581 82.419C951.582 82.8305 951.541 83.0982 951.541 83.5202C951.541 83.9004 951.541 84.2807 951.541 84.6608Z" fill="#222222"/>
<path fill-rule="evenodd" clip-rule="evenodd" d="M968.178 86.9811C969.486 86.9811 970.111 86.0654 970.111 84.9358L970.072 83.5188C970.073 83.2745 970.029 83.2146 970.03 82.9704L969.944 81.2838C969.871 80.6457 969.852 79.7948 969.791 79.0734C969.758 78.6835 969.78 78.3277 969.747 77.9369C969.688 77.2381 969.672 76.4118 969.593 75.7266L969.347 71.2864C969.345 71.0708 969.312 70.9808 969.306 70.7369C969.302 70.5918 969.27 70.3612 969.243 70.2084C969.178 69.8458 969.083 69.6079 968.931 69.3335C968.388 68.3589 966.642 68.2253 965.905 68.9511C965.871 68.9852 965.842 69.0189 965.809 69.0537C965.055 69.8556 965.485 71.9423 965.479 73.0968C965.477 73.3697 965.488 73.5554 965.513 73.7715C965.538 73.9864 965.511 74.2534 965.518 74.475C965.525 74.7097 965.561 74.8885 965.559 75.1818L965.611 76.5475C965.66 76.903 965.659 78.124 965.715 78.6093L965.761 79.9801C965.759 80.5293 965.843 81.3792 965.84 82.0656L965.978 84.8026C966.074 85.4358 966.194 85.9178 966.596 86.362C966.938 86.7401 967.593 86.9811 968.178 86.9811Z" fill="#222222"/>
<path fill-rule="evenodd" clip-rule="evenodd" d="M939.175 47.5713H941.672C943.59 47.5713 943.979 46.2534 943.929 44.6202L943.716 41.9184C943.692 41.7487 943.651 41.3501 943.646 41.1606L943.381 38.1151C943.339 37.822 943.301 37.648 943.254 37.4132C942.982 36.0654 942.083 35.1426 940.464 35.1426H937.886C937.886 35.5932 938.316 39.0374 938.368 39.785C938.404 40.3129 938.493 40.8444 938.529 41.3583C938.564 41.8706 938.655 42.3886 938.69 42.8923C938.742 43.6412 939.175 47.145 939.175 47.5713Z" fill="#222222"/>
<path fill-rule="evenodd" clip-rule="evenodd" d="M956.98 46.47H959.195C960.288 46.47 961.276 45.9829 961.72 45.1202C962.217 44.1531 962.177 42.8524 962.176 41.7109C962.175 41.263 962.216 40.9259 962.216 40.4524C962.216 39.1326 962.347 37.2052 961.621 36.1568C961.141 35.465 960.447 35.1426 959.517 35.1426H956.818C956.818 37.9158 956.939 40.8381 956.939 43.6381C956.939 44.1506 956.98 44.5212 956.98 45.0147C956.979 45.4998 956.98 45.9849 956.98 46.47Z" fill="#222222"/>
</svg>
